G04*
G04 #@! TF.GenerationSoftware,Altium Limited,Altium Designer,19.1.7 (138)*
G04*
G04 Layer_Color=16711935*
%FSLAX44Y44*%
%MOMM*%
G71*
G01*
G75*
%ADD17R,1.0532X1.0532*%
%ADD18R,1.0532X1.0532*%
%ADD19R,1.4532X1.2032*%
%ADD21R,1.5032X1.2532*%
%ADD30C,1.6032*%
%ADD31C,1.0032*%
%ADD32R,1.0032X1.0032*%
%ADD33R,1.0032X1.0032*%
%ADD34O,1.2032X2.2032*%
%ADD35C,3.2032*%
%ADD38R,1.2032X1.2032*%
%ADD39C,1.2032*%
%ADD40C,4.2032*%
%ADD84C,0.5500*%
%ADD85C,0.6500*%
%ADD86R,1.4000X1.1000*%
%ADD87R,1.6000X2.1750*%
%ADD88R,1.2032X1.4532*%
%ADD89R,1.2032X0.8032*%
%ADD90R,2.7032X1.9032*%
%ADD91R,1.8032X1.4032*%
%ADD92R,1.3032X2.0032*%
%ADD93R,2.6032X1.2032*%
%ADD94R,2.6032X3.5032*%
%ADD95R,1.8032X1.2032*%
G04:AMPARAMS|DCode=96|XSize=2.2032mm|YSize=0.8032mm|CornerRadius=0.4016mm|HoleSize=0mm|Usage=FLASHONLY|Rotation=270.000|XOffset=0mm|YOffset=0mm|HoleType=Round|Shape=RoundedRectangle|*
%AMROUNDEDRECTD96*
21,1,2.2032,0.0000,0,0,270.0*
21,1,1.4000,0.8032,0,0,270.0*
1,1,0.8032,0.0000,-0.7000*
1,1,0.8032,0.0000,0.7000*
1,1,0.8032,0.0000,0.7000*
1,1,0.8032,0.0000,-0.7000*
%
%ADD96ROUNDEDRECTD96*%
D17*
X204000Y241000D02*
D03*
Y227000D02*
D03*
X351000Y181000D02*
D03*
Y167000D02*
D03*
Y210000D02*
D03*
Y224000D02*
D03*
X94000Y140000D02*
D03*
Y126000D02*
D03*
X145000Y115000D02*
D03*
Y101000D02*
D03*
X162000Y115000D02*
D03*
Y101000D02*
D03*
X179000D02*
D03*
Y115000D02*
D03*
X139000Y164000D02*
D03*
Y178000D02*
D03*
X396000Y100000D02*
D03*
Y86000D02*
D03*
X379000Y100000D02*
D03*
Y86000D02*
D03*
X176000Y315000D02*
D03*
Y329000D02*
D03*
X157001Y396001D02*
D03*
Y382001D02*
D03*
D18*
X91000Y411000D02*
D03*
X77000D02*
D03*
X485000Y92000D02*
D03*
X471000D02*
D03*
X211500Y338250D02*
D03*
X197500D02*
D03*
X233000Y314000D02*
D03*
X247000D02*
D03*
X25000Y195000D02*
D03*
X39000D02*
D03*
X25000Y214000D02*
D03*
X39000D02*
D03*
X122000Y100000D02*
D03*
X108000D02*
D03*
X169000Y163000D02*
D03*
X155000D02*
D03*
X169000Y179000D02*
D03*
X155000D02*
D03*
X92000Y229000D02*
D03*
X106000D02*
D03*
X92000Y213000D02*
D03*
X106000D02*
D03*
X92000Y245000D02*
D03*
X106000D02*
D03*
X142000Y322000D02*
D03*
X156000D02*
D03*
X188000Y298000D02*
D03*
X202000D02*
D03*
X168000D02*
D03*
X154000D02*
D03*
X123000D02*
D03*
X137000D02*
D03*
X247000Y374000D02*
D03*
X233000D02*
D03*
X233000Y394000D02*
D03*
X247000D02*
D03*
Y353000D02*
D03*
X233000D02*
D03*
X247000Y333000D02*
D03*
X233000D02*
D03*
X198000Y319000D02*
D03*
X212000D02*
D03*
X144000Y365000D02*
D03*
X158000D02*
D03*
Y412000D02*
D03*
X144000D02*
D03*
X158000Y344000D02*
D03*
X144000D02*
D03*
X180000Y356000D02*
D03*
X194000D02*
D03*
D19*
X613000Y99000D02*
D03*
Y79000D02*
D03*
X417000Y250000D02*
D03*
Y230000D02*
D03*
X280000Y396000D02*
D03*
Y376000D02*
D03*
D21*
X93250Y369750D02*
D03*
Y351250D02*
D03*
X70250D02*
D03*
Y369750D02*
D03*
D30*
X344400Y140000D02*
D03*
X319000D02*
D03*
X293600D02*
D03*
X268200D02*
D03*
D31*
X54500Y107000D02*
D03*
Y94500D02*
D03*
Y119500D02*
D03*
X106500Y274000D02*
D03*
X81500D02*
D03*
X94000D02*
D03*
X391000Y16000D02*
D03*
X403500D02*
D03*
X233000Y22000D02*
D03*
X18000Y282500D02*
D03*
Y270000D02*
D03*
X85000Y43000D02*
D03*
Y18000D02*
D03*
Y30500D02*
D03*
X22750Y119500D02*
D03*
Y132000D02*
D03*
Y107000D02*
D03*
X313500Y253000D02*
D03*
X326000D02*
D03*
X301000D02*
D03*
D32*
X54500Y132000D02*
D03*
X18000Y295000D02*
D03*
X85000Y55500D02*
D03*
X22750Y94500D02*
D03*
D33*
X119000Y274000D02*
D03*
X378500Y16000D02*
D03*
X245500Y22000D02*
D03*
X288500Y253000D02*
D03*
D34*
X198500Y23500D02*
D03*
Y58200D02*
D03*
X126500D02*
D03*
Y23500D02*
D03*
D35*
X450000Y193000D02*
D03*
Y243800D02*
D03*
Y142200D02*
D03*
D38*
X18000Y420000D02*
D03*
D39*
Y407500D02*
D03*
Y382500D02*
D03*
Y395000D02*
D03*
D40*
X25000Y25000D02*
D03*
Y475000D02*
D03*
X475000Y25000D02*
D03*
Y475000D02*
D03*
D84*
X465500Y424400D02*
G03*
X465500Y424400I-7500J0D01*
G01*
Y399000D02*
G03*
X465500Y399000I-7500J0D01*
G01*
Y317100D02*
G03*
X465500Y317100I-7500J0D01*
G01*
X466500Y291700D02*
G03*
X466500Y291700I-7500J0D01*
G01*
X353000Y313550D02*
G03*
X353000Y313550I-7500J0D01*
G01*
X327600Y326250D02*
G03*
X327600Y326250I-7500J0D01*
G01*
X353000Y338950D02*
G03*
X353000Y338950I-7500J0D01*
G01*
X327600Y351650D02*
G03*
X327600Y351650I-7500J0D01*
G01*
X353000Y364350D02*
G03*
X353000Y364350I-7500J0D01*
G01*
X327600Y377050D02*
G03*
X327600Y377050I-7500J0D01*
G01*
Y402450D02*
G03*
X327600Y402450I-7500J0D01*
G01*
X353000Y389750D02*
G03*
X353000Y389750I-7500J0D01*
G01*
D85*
X390500Y278400D02*
G03*
X390500Y278400I-12000J0D01*
G01*
Y437700D02*
G03*
X390500Y437700I-12000J0D01*
G01*
D86*
X375000Y139500D02*
D03*
D87*
X235000Y99375D02*
D03*
D88*
X372000Y222000D02*
D03*
X392000D02*
D03*
X423000Y153000D02*
D03*
X403000D02*
D03*
D89*
X373000Y183000D02*
D03*
Y202000D02*
D03*
X397000Y192500D02*
D03*
D90*
X235000Y119000D02*
D03*
Y79000D02*
D03*
D91*
X318500Y211250D02*
D03*
Y179250D02*
D03*
X184000Y411000D02*
D03*
Y379000D02*
D03*
D92*
X167002Y261498D02*
D03*
X192002D02*
D03*
D93*
X338000Y101000D02*
D03*
Y78000D02*
D03*
Y55000D02*
D03*
D94*
X280000Y78000D02*
D03*
D95*
X421000Y178000D02*
D03*
Y208000D02*
D03*
D96*
X220696Y239362D02*
D03*
X233564Y239360D02*
D03*
X246264D02*
D03*
X258964D02*
D03*
Y288640D02*
D03*
X246264D02*
D03*
X233396Y288638D02*
D03*
X220864Y288640D02*
D03*
M02*
