M48
;Layer_Color=9474304
;FILE_FORMAT=4:4
METRIC,LZ
;TYPE=PLATED
T1F00S00C0.2000
T2F00S00C0.4500
T4F00S00C0.6000
T5F00S00C0.7000
T6F00S00C1.0000
T7F00S00C1.4000
T8F00S00C1.8000
T9F00S00C2.5000
T10F00S00C3.4000
%
T01
X002775Y0002
X00260001Y00050001
X00258Y00079
X00268Y00104
X00300001Y00090001
X00340001
X00360001
X00420001
X00447Y00087
Y0008
X00458Y00091
X00460001Y00050001
X00480001
X00440001
X00420001
X00433Y00035
X00430001Y00030001
X00450001
X003375Y0002
X00319Y00059
X003165Y001675
X00324Y0019325
X003225Y002235
X00357Y00194
X00384Y00202
Y00183
X00388Y00165
Y00153
X00433Y00169
Y00216
X00440001Y00290001
X00430001Y00310001
X00440001Y00330001
X00420001
X00380001
X00360001
X00330001Y00310001
X00310001
X00290001
X00289Y00324
X00268Y00319
X00258Y00331
X00268Y00288
X00280001Y00290001
X00300001
X00320001
X00340001
X00350001Y00270001
X0025675Y0025675
X00258Y0022
X00242Y00227812
X00477Y00306
X00221Y00308
X0022275Y003205
X00190001Y00310001
X00178Y00298
X001655Y0031125
X0013275Y0030975
X00137Y00287
X00120001Y00250001
X00155Y0024975
X00180001Y00250001
X00183Y0023
X00173249Y00221
X00191Y0021875
X00213Y00212
X00222Y00190657
X00231Y0019
X00215161Y00174839
X00193596Y00184596
X0018Y00177
X0018Y00164
X0018Y00155
X0019Y001545
X00174Y00135
X00167
X001475Y001425
X00155Y00152
X00139Y00154
X00137Y0018875
X001485Y001905
X00174Y001905
X00155Y00219
X001435Y0022525
X0013475Y002225
X0012925Y0021675
X00124Y00211
X0006475Y002005
X00070001Y00190001
X00049Y00192
X0005Y00215
X00050001Y00230001
X00040001Y00250001
X00030001Y00270001
Y00310001
X00050001
X0006025Y0033625
X00080001Y00330001
X0010875Y00331
X00090001Y00310001
X00080001Y00290001
X00007Y0033
X00025Y00224
X000215Y0015675
X00030001Y00150001
X00050001
X000545Y001615
X00060001Y00170001
X00080001Y00130001
X00070001Y00110001
Y00070001
X00050001
X00030001
X00040001Y00050001
X00060001
X00070001Y00030001
X00050001
X00110001
X00150001
X001495Y00041
X00140001Y00050001
X00156Y00066
X001625Y0007025
X00190001Y00070001
X0021Y00101
X00198Y0012
X002315Y00156042
X00223Y00258
X0022Y00273
X00208Y00255
X0010475Y001395
X00109Y00125
X00040001Y00130001
X00170001Y00030001
X00210001
X00186Y0034
X00178Y00369
X00182999Y00391999
X00180404Y003995
X00200001Y00410001
X00220001
X00216Y00390999
X00221598Y00381598
X00222625Y00354125
X00132999Y00362999
Y0037
X00134553Y00385553
X0013425Y00394
X00145Y00396
X00143Y00382
X00106Y00389
X0010725Y0037025
X00109Y003505
X00132Y00345
X00082Y00344
X000825Y003605
X00072Y00381
X00052Y003885
X00040001Y00370001
X0003225Y00357
X0002225Y003585
X00030001Y00430001
X00040001Y00450001
X00050001Y00470001
X00062Y0044
X00084Y00459
X00110001Y00430001
X00120001Y00410001
X00184Y00427999
X00213Y00473
X00240001Y00450001
X00280001
Y00410001
X00300001
X00295Y00376
X0028Y00355
X00256Y00344
X0024725Y003635
X00257Y00397
Y00404
X00330001Y00390001
X00340001Y00410001
X00380001
Y00370001
X00360001
X00370001Y00350001
X00390001
X00430001
X004578Y003498
X00470001Y00350001
X00440001Y00410001
X00430001Y00430001
X00440001Y00450001
X00460001
X00480001
X00450001Y00470001
X00408Y00464
X00400001Y00450001
X00420001
X00360001
X00340001
X00333Y00465
X00310001Y00470001
T02
X002455Y00022
X003785Y00016
X00391
X004035
X00326Y00253
X003135
X00301
X002885
X00119Y00274
X001065
X00094
X000815
X00018Y0027
Y002825
Y00295
X0002275Y00132
Y001195
Y00107
Y000945
X000545
Y00107
Y001195
Y00132
X00085Y000555
Y00043
Y000305
Y00018
X00233Y00022
T04
X00018Y003825
Y00395
Y004075
Y0042
T05
X002682Y0014
X002936
X00319
X003444
T06
X003201Y0032625
X003455Y0031355
X00458Y003171
X00459Y002917
X00458Y00399
Y004244
X003455Y0038975
Y0036435
Y0033895
X003201Y0035165
Y0037705
Y0040245
T07
X0045Y001422
Y00193
Y002438
T08
X003785Y002784
Y004377
T09
X00475Y00025
X00025
Y00475
X00475
T10
X00409Y003009
Y004152
M30
