G04*
G04 #@! TF.GenerationSoftware,Altium Limited,Altium Designer,19.1.7 (138)*
G04*
G04 Layer_Physical_Order=1*
G04 Layer_Color=255*
%FSLAX44Y44*%
%MOMM*%
G71*
G01*
G75*
%ADD11C,0.2500*%
%ADD12C,0.5000*%
%ADD41R,0.8500X0.8500*%
%ADD42R,0.8500X0.8500*%
%ADD43R,1.2500X1.0000*%
%ADD44R,0.6000X1.4000*%
%ADD45R,1.3000X1.0500*%
%ADD46R,1.2000X1.6000*%
%ADD47R,1.5250X0.6500*%
%ADD48R,0.4000X1.4000*%
%ADD49R,1.1000X1.0000*%
%ADD50R,2.5000X1.6000*%
%ADD51R,0.4500X0.8500*%
%ADD52O,1.4000X0.3000*%
%ADD53O,0.3000X1.4000*%
%ADD54C,0.5000*%
%ADD55C,0.8000*%
%ADD56C,0.6000*%
%ADD57C,1.0000*%
%ADD58C,0.4000*%
%ADD59C,0.3000*%
%ADD60R,1.4000X1.7000*%
%ADD61R,0.8000X0.9000*%
%ADD62C,1.4000*%
%ADD63C,0.8000*%
%ADD64R,0.8000X0.8000*%
%ADD65R,0.8000X0.8000*%
%ADD66O,1.0000X2.0000*%
%ADD67C,3.0000*%
%ADD68C,2.0000*%
%ADD69R,1.0000X1.0000*%
%ADD70C,1.0000*%
%ADD71C,4.0000*%
G36*
X458746Y490661D02*
X456201Y487561D01*
X454112Y483652D01*
X452826Y479411D01*
X452391Y475000D01*
X452826Y470589D01*
X454112Y466348D01*
X456201Y462439D01*
X459013Y459013D01*
X462439Y456201D01*
X466348Y454112D01*
X470589Y452826D01*
X475000Y452391D01*
X479411Y452826D01*
X483652Y454112D01*
X487561Y456201D01*
X490661Y458746D01*
X491931Y458291D01*
Y421426D01*
X490758Y420940D01*
X482099Y429599D01*
X480532Y430801D01*
X478708Y431557D01*
X476750Y431815D01*
X468066D01*
X466915Y433315D01*
X464304Y435319D01*
X461263Y436578D01*
X458000Y437008D01*
X454737Y436578D01*
X451696Y435319D01*
X449085Y433315D01*
X447081Y430704D01*
X445822Y427663D01*
X445392Y424400D01*
X445822Y421137D01*
X447081Y418096D01*
X449085Y415485D01*
X451696Y413481D01*
X454423Y412352D01*
X454423Y412350D01*
Y411050D01*
X454423Y411048D01*
X451696Y409919D01*
X449085Y407915D01*
X447081Y405304D01*
X445822Y402263D01*
X445392Y399000D01*
X445822Y395737D01*
X447081Y392696D01*
X449085Y390085D01*
X451696Y388081D01*
X454737Y386822D01*
X458000Y386392D01*
X461263Y386822D01*
X464304Y388081D01*
X466915Y390085D01*
X468919Y392696D01*
X470178Y395737D01*
X470608Y399000D01*
X470178Y402263D01*
X468919Y405304D01*
X466915Y407915D01*
X464304Y409919D01*
X461577Y411048D01*
X461577Y411050D01*
Y412350D01*
X461577Y412352D01*
X464304Y413481D01*
X466915Y415485D01*
X467836Y416685D01*
X473617D01*
X483435Y406867D01*
Y377565D01*
X406133D01*
X350349Y433349D01*
X348782Y434551D01*
X346958Y435307D01*
X345000Y435565D01*
X231133D01*
X192349Y474349D01*
X190782Y475551D01*
X188958Y476307D01*
X187000Y476565D01*
X117000D01*
X117000Y476565D01*
X115042Y476307D01*
X113218Y475551D01*
X111651Y474349D01*
X111651Y474349D01*
X52367Y415065D01*
X25500D01*
Y427500D01*
X10500D01*
Y412500D01*
X10947D01*
X11509Y411361D01*
X11449Y411282D01*
X10693Y409458D01*
X10435Y407500D01*
X10693Y405542D01*
X11449Y403718D01*
X12651Y402151D01*
X12997Y401885D01*
Y400615D01*
X12651Y400349D01*
X11449Y398782D01*
X10693Y396958D01*
X10435Y395000D01*
X10693Y393042D01*
X11449Y391218D01*
X12651Y389651D01*
X12997Y389385D01*
Y388115D01*
X12651Y387849D01*
X11449Y386282D01*
X10693Y384458D01*
X10435Y382500D01*
X10693Y380542D01*
X11449Y378718D01*
X12651Y377151D01*
X14218Y375949D01*
X16042Y375193D01*
X18000Y374935D01*
X19958Y375193D01*
X21782Y375949D01*
X23349Y377151D01*
X24551Y378718D01*
X25307Y380542D01*
X25565Y382500D01*
X25307Y384458D01*
X24551Y386282D01*
X23349Y387849D01*
X23003Y388115D01*
Y389385D01*
X23349Y389651D01*
X24551Y391218D01*
X25307Y393042D01*
X25565Y395000D01*
X25307Y396958D01*
X24600Y398665D01*
X24936Y399599D01*
X25102Y399935D01*
X46902D01*
Y388500D01*
X47290Y386549D01*
X48395Y384895D01*
X50049Y383790D01*
X52000Y383402D01*
X53951Y383790D01*
X55605Y384895D01*
X56710Y386549D01*
X57098Y388500D01*
Y400146D01*
X57458Y400193D01*
X59282Y400949D01*
X60849Y402151D01*
X117260Y458561D01*
X118210Y457716D01*
Y452270D01*
X123730D01*
Y457790D01*
X118284D01*
X117439Y458741D01*
X120133Y461435D01*
X183867D01*
X222651Y422651D01*
X222651Y422651D01*
X224218Y421449D01*
X226042Y420693D01*
X228000Y420435D01*
X235207D01*
X236210Y419790D01*
X236210Y419165D01*
Y414270D01*
X243000D01*
Y413000D01*
X244270D01*
Y406210D01*
X248997D01*
X249790Y406210D01*
X251043Y406250D01*
X251079D01*
X252097Y404980D01*
X251902Y404000D01*
X252281Y402093D01*
X252309Y401867D01*
X251625Y400823D01*
X251161D01*
X250792Y400750D01*
X241020D01*
X240250Y400750D01*
X238980Y400750D01*
X226250D01*
Y392657D01*
X225296Y391704D01*
X224468Y390463D01*
X224177Y389000D01*
Y380695D01*
X215771Y372289D01*
X214446Y372571D01*
X214008Y373550D01*
X214268Y373939D01*
X214578Y375500D01*
X214268Y377061D01*
X213664Y377964D01*
X214306Y378924D01*
X214366Y379230D01*
X212118D01*
X212061Y379268D01*
X210500Y379579D01*
X205000D01*
Y381421D01*
X210500D01*
X212061Y381732D01*
X212118Y381770D01*
X214366D01*
X214306Y382076D01*
X214235Y382181D01*
X215299Y382892D01*
X218703Y386296D01*
X219302Y387192D01*
X219604Y387394D01*
X220709Y389048D01*
X221098Y390999D01*
X220709Y392950D01*
X219604Y394604D01*
X217950Y395709D01*
X216000Y396097D01*
X215399Y395978D01*
X214343Y396683D01*
X214268Y397061D01*
X213384Y398384D01*
X212061Y399268D01*
X210500Y399578D01*
X199500D01*
X197939Y399268D01*
X196616Y398384D01*
X195732Y397061D01*
X195466Y395721D01*
X194795Y395350D01*
X194185Y395205D01*
X190205Y399185D01*
X190350Y399795D01*
X190721Y400466D01*
X192061Y400732D01*
X193384Y401616D01*
X194268Y402939D01*
X194578Y404500D01*
Y415500D01*
X194268Y417061D01*
X193384Y418384D01*
X192061Y419268D01*
X190500Y419578D01*
X188939Y419268D01*
X188036Y418664D01*
X187076Y419306D01*
X186770Y419366D01*
Y417118D01*
X186731Y417061D01*
X186421Y415500D01*
Y410000D01*
X184579D01*
Y415500D01*
X184268Y417061D01*
X184230Y417118D01*
Y419366D01*
X183924Y419306D01*
X182964Y418664D01*
X182061Y419268D01*
X180500Y419578D01*
X178939Y419268D01*
X178036Y418664D01*
X177076Y419306D01*
X176770Y419366D01*
Y417118D01*
X176732Y417061D01*
X176421Y415500D01*
Y410000D01*
X174579D01*
Y415500D01*
X174268Y417061D01*
X174230Y417118D01*
Y419366D01*
X173924Y419306D01*
X172964Y418664D01*
X172061Y419268D01*
X170500Y419578D01*
X168939Y419268D01*
X168000Y418640D01*
X167061Y419268D01*
X165500Y419578D01*
X163939Y419268D01*
X163036Y418664D01*
X162076Y419306D01*
X160500Y419619D01*
X160305Y419580D01*
X159323Y420386D01*
Y424916D01*
X161704Y427296D01*
X162532Y428537D01*
X162823Y430000D01*
Y430250D01*
X166750D01*
Y442957D01*
X166790Y444210D01*
X166790Y445003D01*
Y449730D01*
X153210D01*
Y445004D01*
X153210Y444210D01*
X153250Y442957D01*
Y430250D01*
X153250Y430250D01*
X152778Y429176D01*
X151968Y427963D01*
X151677Y426500D01*
Y420345D01*
X150695Y419540D01*
X150500Y419578D01*
X150305Y419540D01*
X149323Y420345D01*
Y430250D01*
X149750D01*
Y442957D01*
X149790Y444210D01*
X149790Y445003D01*
Y449730D01*
X143000D01*
X136210D01*
Y445004D01*
X136210Y444210D01*
X136250Y442957D01*
Y432817D01*
X135077Y432331D01*
X131750Y435657D01*
Y442957D01*
X131790Y444210D01*
X131790Y445003D01*
Y449730D01*
X118210D01*
Y445004D01*
X118210Y444210D01*
X118250Y442957D01*
Y430250D01*
X126343D01*
X135774Y420819D01*
X135644Y420229D01*
X135265Y419532D01*
X133939Y419268D01*
X132616Y418384D01*
X131732Y417061D01*
X131422Y415500D01*
Y404500D01*
X131456Y404325D01*
X130651Y403344D01*
X95770D01*
X94307Y403052D01*
X93067Y402224D01*
X91593Y400750D01*
X84293D01*
X83040Y400790D01*
X82247Y400790D01*
X77520D01*
Y394000D01*
Y387210D01*
X82247D01*
X83040Y387210D01*
X84293Y387250D01*
X97000D01*
Y395343D01*
X97354Y395697D01*
X111260D01*
X111422Y395500D01*
X111732Y393939D01*
X112360Y393000D01*
X111732Y392061D01*
X111678Y391788D01*
X110330Y391520D01*
X109605Y392605D01*
X107951Y393710D01*
X106000Y394098D01*
X104049Y393710D01*
X102395Y392605D01*
X101290Y390951D01*
X100902Y389000D01*
X101290Y387049D01*
X102177Y385722D01*
Y385500D01*
X102468Y384037D01*
X103296Y382796D01*
X108296Y377797D01*
X109537Y376968D01*
X110346Y376807D01*
X110377Y376770D01*
X110527D01*
X111000Y376676D01*
X114219D01*
X115500Y376421D01*
X121000D01*
Y374579D01*
X115500D01*
X113939Y374268D01*
X113882Y374230D01*
X110635D01*
X110633Y374228D01*
X110296D01*
X109201Y374960D01*
X107250Y375348D01*
X105299Y374960D01*
X103645Y373855D01*
X102540Y372201D01*
X102314Y371066D01*
X100978Y370207D01*
X100947Y370206D01*
X100750Y370277D01*
Y374750D01*
X87250D01*
Y361250D01*
X87250D01*
X87210Y360790D01*
X87210D01*
X87210Y359997D01*
Y355270D01*
X94000D01*
Y352730D01*
X87210D01*
Y347488D01*
X86056Y346929D01*
X85605Y347605D01*
X83951Y348710D01*
X82000Y349098D01*
X80049Y348710D01*
X79910Y348617D01*
X78790Y349216D01*
Y352730D01*
X73270D01*
Y347210D01*
X76784D01*
X77383Y346090D01*
X77290Y345951D01*
X76902Y344000D01*
X77290Y342049D01*
X78395Y340395D01*
X80049Y339290D01*
X81614Y338979D01*
X82296Y338296D01*
X83537Y337468D01*
X85000Y337177D01*
X98410D01*
X99215Y336195D01*
X99177Y336000D01*
Y297084D01*
X82515Y280422D01*
X81500Y280556D01*
X79803Y280333D01*
X78222Y279678D01*
X76864Y278636D01*
X75822Y277278D01*
X75167Y275697D01*
X74944Y274000D01*
X75167Y272303D01*
X75822Y270722D01*
X76864Y269364D01*
X78222Y268322D01*
X79803Y267667D01*
X81500Y267444D01*
X82073Y267519D01*
X88867Y260726D01*
Y256700D01*
X87693Y256214D01*
X53954Y289954D01*
X52713Y290782D01*
X51250Y291073D01*
X27334D01*
X24500Y293907D01*
Y301500D01*
X11500D01*
Y288500D01*
X13056D01*
X13487Y287230D01*
X13364Y287136D01*
X12322Y285778D01*
X11667Y284197D01*
X11444Y282500D01*
X11667Y280803D01*
X12322Y279222D01*
X13364Y277864D01*
X14527Y276972D01*
X14636Y276250D01*
X14527Y275528D01*
X13364Y274636D01*
X12322Y273278D01*
X11667Y271697D01*
X11444Y270000D01*
X11667Y268303D01*
X12322Y266722D01*
X13364Y265364D01*
X14722Y264322D01*
X16303Y263667D01*
X18000Y263444D01*
X19697Y263667D01*
X21278Y264322D01*
X22636Y265364D01*
X23678Y266722D01*
X24333Y268303D01*
X24556Y270000D01*
X24422Y271015D01*
X26084Y272677D01*
X45166D01*
X73177Y244666D01*
Y177000D01*
X73468Y175537D01*
X74296Y174296D01*
X94096Y154497D01*
X93610Y153323D01*
X65500D01*
X64037Y153032D01*
X62796Y152204D01*
X55416Y144823D01*
X50250D01*
X48787Y144532D01*
X47546Y143704D01*
X44296Y140454D01*
X43468Y139213D01*
X43177Y137750D01*
Y114000D01*
X43468Y112537D01*
X44296Y111296D01*
X48019Y107573D01*
X47944Y107000D01*
X48167Y105303D01*
X48822Y103722D01*
X49864Y102364D01*
X51027Y101472D01*
X51136Y100750D01*
X51027Y100028D01*
X49864Y99136D01*
X49343Y98457D01*
X48073Y98888D01*
Y100000D01*
X47782Y101463D01*
X46954Y102704D01*
X29177Y120480D01*
X29083Y121197D01*
X28428Y122778D01*
X27386Y124136D01*
X26260Y125000D01*
X26140Y125730D01*
X26140Y125780D01*
X26266Y126454D01*
X27415Y127336D01*
X28463Y128702D01*
X29122Y130293D01*
X29179Y130730D01*
X22750D01*
X16321D01*
X16379Y130293D01*
X17038Y128702D01*
X18086Y127336D01*
X19235Y126454D01*
X19360Y125780D01*
X19361Y125730D01*
X19241Y125000D01*
X18114Y124136D01*
X17072Y122778D01*
X16417Y121197D01*
X16194Y119500D01*
X16417Y117803D01*
X17072Y116222D01*
X18114Y114864D01*
X19277Y113972D01*
X19386Y113250D01*
X19277Y112528D01*
X18114Y111636D01*
X17072Y110278D01*
X16417Y108697D01*
X16194Y107000D01*
X16417Y105303D01*
X17072Y103722D01*
X18114Y102364D01*
X18237Y102270D01*
X17806Y101000D01*
X16250D01*
Y88000D01*
X29250D01*
Y100721D01*
X30345Y101423D01*
X34927Y96841D01*
Y89250D01*
X35218Y87787D01*
X36046Y86546D01*
X44296Y78296D01*
X45537Y77468D01*
X47000Y77177D01*
X83315D01*
X84778Y77468D01*
X86018Y78296D01*
X128248Y120526D01*
X129422Y120040D01*
Y114500D01*
X129677Y113218D01*
Y110766D01*
X82296Y63386D01*
X81468Y62146D01*
X81439Y62000D01*
X78500D01*
Y49000D01*
X80056D01*
X80487Y47730D01*
X80364Y47636D01*
X79322Y46278D01*
X78667Y44697D01*
X78444Y43000D01*
X78667Y41303D01*
X79322Y39722D01*
X80364Y38364D01*
X81527Y37472D01*
X81636Y36750D01*
X81527Y36028D01*
X80364Y35136D01*
X79322Y33778D01*
X78667Y32197D01*
X78444Y30500D01*
X78667Y28803D01*
X79322Y27222D01*
X80364Y25864D01*
X81527Y24972D01*
X81636Y24250D01*
X81527Y23528D01*
X80364Y22636D01*
X79322Y21278D01*
X78667Y19697D01*
X78444Y18000D01*
X78667Y16303D01*
X79322Y14722D01*
X80364Y13364D01*
X81722Y12322D01*
X83303Y11667D01*
X85000Y11444D01*
X86697Y11667D01*
X88278Y12322D01*
X89636Y13364D01*
X90678Y14722D01*
X91333Y16303D01*
X91556Y18000D01*
X91422Y19015D01*
X106704Y34296D01*
X107532Y35537D01*
X107823Y37000D01*
Y57416D01*
X151204Y100796D01*
X152032Y102037D01*
X152323Y103500D01*
Y109655D01*
X153305Y110460D01*
X153500Y110422D01*
X153791Y110479D01*
X154772Y109674D01*
Y103654D01*
X155063Y102191D01*
X155892Y100951D01*
X173546Y83296D01*
X174787Y82468D01*
X176250Y82177D01*
X195666D01*
X229177Y48666D01*
Y27259D01*
X228364Y26636D01*
X227322Y25278D01*
X226667Y23697D01*
X226444Y22000D01*
X226667Y20303D01*
X227322Y18722D01*
X228364Y17364D01*
X229722Y16322D01*
X231303Y15667D01*
X233000Y15444D01*
X234697Y15667D01*
X236278Y16322D01*
X237636Y17364D01*
X237730Y17487D01*
X239000Y17056D01*
Y15500D01*
X252000D01*
Y28500D01*
X244407D01*
X241823Y31084D01*
Y52250D01*
X241532Y53713D01*
X240704Y54954D01*
X202454Y93204D01*
X201213Y94032D01*
X199750Y94323D01*
X180084D01*
X167323Y107084D01*
Y109655D01*
X168305Y110460D01*
X168500Y110422D01*
X170061Y110732D01*
X171000Y111360D01*
X171939Y110732D01*
X173500Y110422D01*
X175061Y110732D01*
X176000Y111360D01*
X176939Y110732D01*
X178500Y110422D01*
X180061Y110732D01*
X180964Y111336D01*
X181924Y110694D01*
X182230Y110633D01*
Y112882D01*
X182268Y112939D01*
X182579Y114500D01*
Y120000D01*
X184392D01*
X184421Y119852D01*
Y114500D01*
X184732Y112939D01*
X184770Y112882D01*
Y110633D01*
X185076Y110694D01*
X186036Y111336D01*
X186939Y110732D01*
X188500Y110422D01*
X190061Y110732D01*
X191384Y111616D01*
X192268Y112939D01*
X192338Y113291D01*
X193737Y113817D01*
X194218Y113449D01*
X196042Y112693D01*
X198000Y112435D01*
X223935D01*
Y105500D01*
X224193Y103542D01*
X224949Y101718D01*
X226151Y100151D01*
X252651Y73651D01*
X286651Y39651D01*
X288218Y38449D01*
X290042Y37693D01*
X292000Y37435D01*
X292000Y37435D01*
X343000D01*
X344958Y37693D01*
X346782Y38449D01*
X348349Y39651D01*
X365133Y56435D01*
X395935D01*
Y22007D01*
X394665Y21381D01*
X394278Y21678D01*
X392697Y22333D01*
X391000Y22556D01*
X389303Y22333D01*
X387722Y21678D01*
X386364Y20636D01*
X386310Y20565D01*
X385040Y20996D01*
Y22540D01*
X379770D01*
Y16000D01*
Y9460D01*
X385040D01*
Y11004D01*
X386310Y11435D01*
X386364Y11364D01*
X387722Y10322D01*
X389303Y9667D01*
X391000Y9444D01*
X392697Y9667D01*
X394278Y10322D01*
X395636Y11364D01*
X395856Y11651D01*
X395909Y11679D01*
X397420Y11603D01*
X398151Y10651D01*
X399718Y9449D01*
X399983Y9339D01*
X399730Y8069D01*
X185540D01*
Y10730D01*
X169460D01*
Y8069D01*
X155540D01*
Y10730D01*
X139460D01*
Y8069D01*
X41709D01*
X41254Y9339D01*
X43799Y12439D01*
X45888Y16348D01*
X47174Y20589D01*
X47609Y25000D01*
X47174Y29411D01*
X45888Y33652D01*
X43799Y37561D01*
X40987Y40987D01*
X37561Y43799D01*
X33652Y45888D01*
X29411Y47174D01*
X25000Y47609D01*
X20589Y47174D01*
X16348Y45888D01*
X12439Y43799D01*
X9339Y41254D01*
X8069Y41709D01*
Y170710D01*
X11480D01*
Y180250D01*
Y189790D01*
X8069D01*
Y215710D01*
X11480D01*
Y225250D01*
Y234790D01*
X8069D01*
X8069Y321500D01*
X24000D01*
Y337000D01*
X8069D01*
Y341000D01*
X24000D01*
Y353750D01*
X24201Y353790D01*
X25855Y354895D01*
X26179Y355381D01*
X27527Y355113D01*
X27540Y355049D01*
X28645Y353395D01*
X30299Y352290D01*
X32000Y351952D01*
Y341000D01*
X50000D01*
Y356500D01*
X38590D01*
X38454Y356704D01*
X37147Y358010D01*
X36960Y358951D01*
X35855Y360605D01*
X34201Y361710D01*
X32250Y362098D01*
X30299Y361710D01*
X28645Y360605D01*
X28321Y360119D01*
X26972Y360387D01*
X26960Y360451D01*
X25855Y362105D01*
X24201Y363210D01*
X22250Y363598D01*
X20299Y363210D01*
X18645Y362105D01*
X17540Y360451D01*
X17229Y358886D01*
X14843Y356500D01*
X8069D01*
Y458290D01*
X9339Y458746D01*
X12439Y456201D01*
X16348Y454112D01*
X20589Y452826D01*
X25000Y452391D01*
X29411Y452826D01*
X33652Y454112D01*
X37561Y456201D01*
X40987Y459013D01*
X43799Y462439D01*
X45888Y466348D01*
X47174Y470589D01*
X47609Y475000D01*
X47174Y479411D01*
X45888Y483652D01*
X43799Y487561D01*
X41254Y490661D01*
X41709Y491931D01*
X458291D01*
X458746Y490661D01*
D02*
G37*
G36*
X290290Y374049D02*
X291395Y372395D01*
X293049Y371290D01*
X294614Y370979D01*
X304046Y361546D01*
X305287Y360718D01*
X306750Y360427D01*
X309643D01*
X310205Y359287D01*
X309181Y357954D01*
X307922Y354913D01*
X307492Y351650D01*
X307922Y348387D01*
X309181Y345346D01*
X310319Y343863D01*
X309693Y342593D01*
X262814D01*
X261021Y344386D01*
X260710Y345951D01*
X259605Y347605D01*
X257951Y348710D01*
X256386Y349021D01*
X253750Y351657D01*
Y359750D01*
X252285D01*
X251606Y361020D01*
X251960Y361549D01*
X252348Y363500D01*
X252328Y363598D01*
X253704Y364973D01*
X254532Y366213D01*
X254739Y367250D01*
X257750D01*
Y370177D01*
X271250D01*
Y368500D01*
X288750D01*
Y375282D01*
X290020Y375407D01*
X290290Y374049D01*
D02*
G37*
G36*
X397651Y364651D02*
X398101Y364201D01*
X398902Y363586D01*
Y343112D01*
X322969Y267179D01*
X321864Y265525D01*
X321476Y263574D01*
Y257722D01*
X321364Y257636D01*
X320472Y256473D01*
X319750Y256364D01*
X319028Y256473D01*
X318136Y257636D01*
X316778Y258678D01*
X315197Y259333D01*
X313500Y259556D01*
X311803Y259333D01*
X310222Y258678D01*
X308864Y257636D01*
X307972Y256473D01*
X307250Y256364D01*
X306528Y256473D01*
X305636Y257636D01*
X304278Y258678D01*
X302697Y259333D01*
X301000Y259556D01*
X299303Y259333D01*
X297722Y258678D01*
X296364Y257636D01*
X296310Y257565D01*
X295040Y257996D01*
Y259540D01*
X289770D01*
Y253000D01*
X288500D01*
Y251730D01*
X281960D01*
Y247823D01*
X260573D01*
Y253472D01*
X261460Y254799D01*
X261848Y256750D01*
X261460Y258701D01*
X260573Y260028D01*
Y279250D01*
X260282Y280713D01*
X259454Y281954D01*
X256704Y284704D01*
X255463Y285532D01*
X254000Y285823D01*
X253750D01*
Y290250D01*
X244250D01*
Y290250D01*
X243790Y290290D01*
Y290290D01*
X242997Y290290D01*
X240270D01*
Y283500D01*
X237730D01*
Y290290D01*
X234210D01*
Y290290D01*
X233790D01*
Y290290D01*
X230270D01*
Y283500D01*
X229000D01*
Y282230D01*
X224210D01*
Y279540D01*
X223960D01*
Y270270D01*
X239000D01*
Y267730D01*
X223960D01*
Y258460D01*
X224210D01*
Y255770D01*
X229000D01*
Y254500D01*
X230270D01*
Y247710D01*
X232997D01*
X233790Y247710D01*
Y247710D01*
X233907Y247720D01*
X235177Y246909D01*
Y244750D01*
X229250D01*
Y244750D01*
X228790Y244790D01*
Y244790D01*
X227997Y244790D01*
X223270D01*
Y238000D01*
X222000D01*
Y236730D01*
X215210D01*
Y231823D01*
X200250D01*
X198847Y231544D01*
X198766Y231598D01*
X198172Y232665D01*
X210704Y245197D01*
X211532Y246437D01*
X211823Y247901D01*
Y251722D01*
X212710Y253049D01*
X213098Y255000D01*
X212710Y256951D01*
X211605Y258605D01*
X209951Y259710D01*
X208000Y260098D01*
X206049Y259710D01*
X204395Y258605D01*
X203290Y256951D01*
X202902Y255000D01*
X203290Y253049D01*
X204177Y251722D01*
Y249484D01*
X187990Y233298D01*
X186726Y233423D01*
X186605Y233605D01*
X184951Y234710D01*
X183251Y235048D01*
X182627Y236220D01*
X188829Y242421D01*
X200704Y254296D01*
X201532Y255537D01*
X201823Y257000D01*
Y267250D01*
X207750D01*
Y279957D01*
X207790Y281210D01*
X207790Y282003D01*
Y286730D01*
X194210D01*
Y282003D01*
X194210Y281210D01*
X193888Y280073D01*
X188500D01*
Y288000D01*
X170500D01*
Y272500D01*
X183131D01*
X183500Y272427D01*
X193552D01*
X194208Y271157D01*
X194177Y271000D01*
Y258584D01*
X189810Y254217D01*
X188540Y254743D01*
X188540Y254836D01*
X188540Y254836D01*
X188540Y254905D01*
Y260480D01*
X180770D01*
Y253960D01*
X187595Y253960D01*
X187664D01*
X187664D01*
X187757Y253960D01*
X187838Y253764D01*
X188283Y252690D01*
X180700Y245107D01*
X179750Y245500D01*
Y245500D01*
X166250D01*
Y245500D01*
X165750D01*
Y245500D01*
X152250D01*
Y245500D01*
X151300Y245107D01*
X147073Y249334D01*
Y252907D01*
X147500Y254000D01*
X165500D01*
Y269500D01*
X158758D01*
X157954Y270704D01*
X157371Y271287D01*
X157857Y272460D01*
X165540D01*
Y278980D01*
X156500D01*
Y280250D01*
X155230D01*
Y288040D01*
X151107D01*
X150620Y289213D01*
X152657Y291250D01*
X156631D01*
X157000Y291177D01*
X157369Y291250D01*
X159957D01*
X161210Y291210D01*
X162003Y291210D01*
X166730D01*
Y298000D01*
Y304790D01*
X162003D01*
X161210Y304790D01*
X159957Y304750D01*
X147250D01*
Y296657D01*
X141145Y290552D01*
X140605Y290605D01*
X138951Y291710D01*
X137000Y292098D01*
X135049Y291710D01*
X133395Y290605D01*
X132290Y288951D01*
X131902Y287000D01*
X132290Y285049D01*
X133177Y283722D01*
Y241000D01*
X133468Y239537D01*
X134296Y238296D01*
X141455Y231138D01*
X141122Y229675D01*
X139895Y228855D01*
X138790Y227201D01*
X137404Y226740D01*
X136701Y227210D01*
X134750Y227598D01*
X132799Y227210D01*
X131145Y226105D01*
X130040Y224451D01*
X129760Y223041D01*
X129250Y221848D01*
X127299Y221460D01*
X125645Y220355D01*
X124540Y218701D01*
X124152Y216750D01*
X124235Y216333D01*
X124000Y216098D01*
X122049Y215710D01*
X120395Y214605D01*
X119290Y212951D01*
X118902Y211000D01*
X119290Y209049D01*
X119802Y208284D01*
Y193578D01*
X113500D01*
X111939Y193268D01*
X111093Y192703D01*
X109823Y193309D01*
Y259416D01*
X117907Y267500D01*
X125500D01*
Y280500D01*
X122823D01*
Y319101D01*
X130248Y326526D01*
X131422Y326040D01*
Y320829D01*
X130046Y319454D01*
X129218Y318213D01*
X128927Y316750D01*
Y313028D01*
X128040Y311701D01*
X127652Y309750D01*
X128040Y307799D01*
X129145Y306145D01*
X130799Y305040D01*
X132750Y304652D01*
X134701Y305040D01*
X136355Y306145D01*
X137460Y307799D01*
X137848Y309750D01*
X137460Y311701D01*
X136573Y313028D01*
Y315166D01*
X138204Y316796D01*
X138401Y317092D01*
X138939Y316732D01*
X140500Y316422D01*
X142061Y316732D01*
X143000Y317360D01*
X143939Y316732D01*
X145500Y316422D01*
X147061Y316732D01*
X148000Y317360D01*
X148939Y316732D01*
X150500Y316422D01*
X152061Y316732D01*
X153000Y317360D01*
X153939Y316732D01*
X155500Y316422D01*
X157061Y316732D01*
X158000Y317360D01*
X158939Y316732D01*
X160500Y316422D01*
X160695Y316460D01*
X161677Y315655D01*
Y314528D01*
X160790Y313201D01*
X160402Y311250D01*
X160790Y309299D01*
X161895Y307645D01*
X163549Y306540D01*
X165500Y306152D01*
X167451Y306540D01*
X169105Y307645D01*
X170210Y309299D01*
X170598Y311250D01*
X170210Y313201D01*
X169323Y314528D01*
Y315655D01*
X170305Y316460D01*
X170500Y316422D01*
X172061Y316732D01*
X173000Y317360D01*
X173939Y316732D01*
X175500Y316422D01*
X177061Y316732D01*
X178000Y317360D01*
X178939Y316732D01*
X180500Y316422D01*
X182061Y316732D01*
X183000Y317360D01*
X183939Y316732D01*
X185500Y316422D01*
X187061Y316732D01*
X187964Y317336D01*
X188924Y316695D01*
X189230Y316633D01*
Y318882D01*
X189269Y318939D01*
X189579Y320500D01*
Y326000D01*
Y331500D01*
X189269Y333061D01*
X189230Y333118D01*
Y335367D01*
X188924Y335306D01*
X187964Y334664D01*
X187061Y335268D01*
X185500Y335578D01*
X183939Y335268D01*
X183000Y334640D01*
X182061Y335268D01*
X180500Y335578D01*
X178939Y335268D01*
X178000Y334640D01*
X177061Y335268D01*
X175500Y335578D01*
X173939Y335268D01*
X173000Y334640D01*
X172061Y335268D01*
X170500Y335578D01*
X168939Y335268D01*
X168000Y334640D01*
X167061Y335268D01*
X165500Y335578D01*
X163939Y335268D01*
X163000Y334640D01*
X162061Y335268D01*
X160500Y335578D01*
X158939Y335268D01*
X158000Y334640D01*
X157061Y335268D01*
X155500Y335578D01*
X153939Y335268D01*
X153000Y334640D01*
X152061Y335268D01*
X150500Y335578D01*
X148939Y335268D01*
X148000Y334640D01*
X147061Y335268D01*
X145500Y335578D01*
X143939Y335268D01*
X143000Y334640D01*
X142061Y335268D01*
X141928Y335294D01*
X141510Y336672D01*
X143494Y338656D01*
X144322Y339896D01*
X144613Y341359D01*
Y348641D01*
X144322Y350104D01*
X143494Y351344D01*
X138344Y356494D01*
X137104Y357322D01*
X136953Y357352D01*
X136297Y358009D01*
X136421Y359273D01*
X136603Y359394D01*
X137709Y361048D01*
X138097Y362999D01*
X137709Y364950D01*
X136673Y366499D01*
X137709Y368049D01*
X138097Y370000D01*
X137709Y371950D01*
X136603Y373604D01*
X134950Y374709D01*
X132999Y375097D01*
X131786Y374856D01*
X131613Y374952D01*
X131522Y375407D01*
X132563Y376677D01*
X141500D01*
X141535Y376684D01*
X143000Y376392D01*
X144000D01*
X146146Y376819D01*
X147965Y378035D01*
X156322Y386392D01*
X182999D01*
X185145Y386819D01*
X186964Y388034D01*
X187118Y388264D01*
X188767Y388563D01*
X189177Y388266D01*
Y375404D01*
Y357060D01*
X189468Y355597D01*
X190296Y354357D01*
X191761Y352892D01*
X193001Y352063D01*
X194344Y351796D01*
X194401Y351770D01*
X197882D01*
X197939Y351732D01*
X199500Y351421D01*
X205000D01*
Y349579D01*
X199500D01*
X197939Y349268D01*
X197882Y349230D01*
X195634D01*
X195694Y348924D01*
X196336Y347964D01*
X195732Y347061D01*
X195422Y345500D01*
X195732Y343939D01*
X196360Y343000D01*
X195732Y342061D01*
X195422Y340500D01*
X195732Y338939D01*
X196616Y337616D01*
X197939Y336732D01*
X199500Y336422D01*
X210500D01*
X211782Y336677D01*
X224916D01*
X226250Y335343D01*
Y327250D01*
X238980D01*
X239750Y327250D01*
X241020Y327250D01*
X249631D01*
X250000Y327177D01*
X254722D01*
X256049Y326290D01*
X258000Y325902D01*
X259951Y326290D01*
X261605Y327395D01*
X262710Y329049D01*
X262835Y329677D01*
X306796D01*
X307797Y328564D01*
X307492Y326250D01*
X307922Y322987D01*
X309181Y319946D01*
X311185Y317335D01*
X313796Y315331D01*
X316837Y314072D01*
X320100Y313642D01*
X323363Y314072D01*
X326404Y315331D01*
X329015Y317335D01*
X331019Y319946D01*
X332214Y322832D01*
X333397Y323367D01*
X333456Y323387D01*
X335627Y321216D01*
X334581Y319854D01*
X333322Y316813D01*
X332892Y313550D01*
X333322Y310287D01*
X334581Y307246D01*
X336585Y304635D01*
X339196Y302631D01*
X342237Y301372D01*
X345500Y300942D01*
X348763Y301372D01*
X351804Y302631D01*
X354415Y304635D01*
X356419Y307246D01*
X357678Y310287D01*
X358108Y313550D01*
X357678Y316813D01*
X356419Y319854D01*
X354415Y322465D01*
X351804Y324469D01*
X349077Y325598D01*
X349077Y325600D01*
Y326900D01*
X349077Y326902D01*
X351804Y328031D01*
X354415Y330035D01*
X356419Y332646D01*
X357678Y335687D01*
X358108Y338950D01*
X357678Y342213D01*
X356419Y345254D01*
X354415Y347865D01*
X351804Y349869D01*
X349077Y350998D01*
X349077Y351000D01*
Y352300D01*
X349077Y352302D01*
X351804Y353431D01*
X354415Y355435D01*
X356419Y358046D01*
X357678Y361087D01*
X358108Y364350D01*
X357678Y367613D01*
X356419Y370654D01*
X354415Y373265D01*
X351804Y375269D01*
X349077Y376398D01*
X349077Y376400D01*
Y377700D01*
X349077Y377702D01*
X351804Y378831D01*
X354415Y380835D01*
X356419Y383446D01*
X357678Y386487D01*
X358108Y389750D01*
X357678Y393013D01*
X356419Y396054D01*
X354415Y398665D01*
X351804Y400669D01*
X348763Y401928D01*
X345500Y402358D01*
X342237Y401928D01*
X339196Y400669D01*
X336585Y398665D01*
X334581Y396054D01*
X333322Y393013D01*
X332892Y389750D01*
X333322Y386487D01*
X334581Y383446D01*
X336585Y380835D01*
X339196Y378831D01*
X341923Y377702D01*
X341923Y377700D01*
Y376400D01*
X341923Y376398D01*
X339196Y375269D01*
X336585Y373265D01*
X334581Y370654D01*
X333322Y367613D01*
X333033Y365420D01*
X331692Y364965D01*
X329704Y366954D01*
X329524Y367074D01*
X329424Y368668D01*
X331019Y370746D01*
X332278Y373787D01*
X332708Y377050D01*
X332278Y380313D01*
X331019Y383354D01*
X329015Y385965D01*
X326404Y387969D01*
X323771Y389059D01*
X323781Y390402D01*
X326424Y391496D01*
X329044Y393506D01*
X331054Y396126D01*
X332317Y399176D01*
X332581Y401180D01*
X320100D01*
X307619D01*
X307883Y399176D01*
X309146Y396126D01*
X311156Y393506D01*
X313776Y391496D01*
X316419Y390402D01*
X316429Y389059D01*
X314356Y388201D01*
X303853Y398704D01*
X302613Y399532D01*
X301150Y399823D01*
X288750D01*
Y403500D01*
X271250D01*
Y388500D01*
X288750D01*
Y392177D01*
X299566D01*
X308949Y382794D01*
X307922Y380313D01*
X307492Y377050D01*
X307922Y373787D01*
X309181Y370746D01*
X310257Y369343D01*
X309631Y368073D01*
X308334D01*
X300021Y376386D01*
X299710Y377951D01*
X298605Y379605D01*
X296951Y380710D01*
X295000Y381098D01*
X293049Y380710D01*
X291395Y379605D01*
X290290Y377951D01*
X290020Y376593D01*
X288750Y376718D01*
Y383500D01*
X271250D01*
Y377823D01*
X257750D01*
Y380750D01*
X245020D01*
X244250Y380750D01*
X242980Y380750D01*
X231823D01*
Y387250D01*
X238980D01*
X239750Y387250D01*
X241020Y387250D01*
X253750D01*
Y391811D01*
X254870Y392410D01*
X255049Y392290D01*
X257000Y391902D01*
X258951Y392290D01*
X260605Y393395D01*
X261710Y395049D01*
X262098Y397000D01*
X261710Y398951D01*
X260675Y400500D01*
X261710Y402049D01*
X262098Y404000D01*
X261903Y404980D01*
X262921Y406250D01*
X263750D01*
Y415631D01*
X263824Y416000D01*
X263750Y416369D01*
X263750Y419750D01*
X264736Y420435D01*
X341867D01*
X397651Y364651D01*
D02*
G37*
G36*
X483435Y299265D02*
X468951D01*
X467915Y300615D01*
X465304Y302619D01*
X462263Y303878D01*
X462111Y303898D01*
X461940Y305202D01*
X464304Y306181D01*
X466915Y308185D01*
X468919Y310796D01*
X470178Y313837D01*
X470608Y317100D01*
X470178Y320363D01*
X468919Y323404D01*
X466915Y326015D01*
X464304Y328019D01*
X461623Y329129D01*
Y346522D01*
X462510Y347849D01*
X462898Y349800D01*
X462510Y351751D01*
X461405Y353405D01*
X459751Y354510D01*
X457800Y354898D01*
X455849Y354510D01*
X454195Y353405D01*
X453090Y351751D01*
X452702Y349800D01*
X453090Y347849D01*
X453977Y346522D01*
Y328963D01*
X451696Y328019D01*
X449085Y326015D01*
X447081Y323404D01*
X445822Y320363D01*
X445392Y317100D01*
X445822Y313837D01*
X447081Y310796D01*
X449085Y308185D01*
X451696Y306181D01*
X454737Y304922D01*
X454889Y304902D01*
X455061Y303598D01*
X452696Y302619D01*
X450085Y300615D01*
X448081Y298004D01*
X446822Y294963D01*
X446392Y291700D01*
X446822Y288437D01*
X448081Y285396D01*
X450085Y282785D01*
X452696Y280781D01*
X455737Y279522D01*
X459000Y279092D01*
X462263Y279522D01*
X465304Y280781D01*
X467915Y282785D01*
X468951Y284135D01*
X483435D01*
Y77133D01*
X479020Y72718D01*
X477750Y72935D01*
Y82980D01*
X477750Y83750D01*
X477750Y85020D01*
Y97750D01*
X464250D01*
Y95078D01*
X460896D01*
X459951Y95710D01*
X458000Y96098D01*
X456049Y95710D01*
X454395Y94605D01*
X453290Y92951D01*
X452902Y91000D01*
X453290Y89049D01*
X454395Y87395D01*
X456049Y86290D01*
X458000Y85902D01*
X459951Y86290D01*
X460896Y86922D01*
X463352D01*
X464250Y86024D01*
X464250Y84250D01*
X464250Y82980D01*
Y72565D01*
X411065D01*
Y74500D01*
X412500D01*
Y84508D01*
X412565Y85000D01*
X412500Y85492D01*
Y95500D01*
X395500D01*
Y74500D01*
X395935D01*
Y71565D01*
X362000D01*
X362000Y71565D01*
X360042Y71307D01*
X358218Y70551D01*
X356651Y69349D01*
X356651Y69349D01*
X339867Y52565D01*
X324814D01*
X324490Y53835D01*
X325551Y55218D01*
X326307Y57042D01*
X326565Y59000D01*
Y115000D01*
X341000D01*
Y110000D01*
X479000Y110000D01*
X479000Y255000D01*
X479000D01*
X479000Y255000D01*
Y275000D01*
X396736D01*
X395883Y275941D01*
X396000Y277130D01*
X378500D01*
X361000D01*
X361214Y274961D01*
X362217Y271655D01*
X363845Y268608D01*
X366037Y265937D01*
X368069Y264270D01*
X367615Y263000D01*
X335006D01*
X334112Y263902D01*
X407605Y337395D01*
X408710Y339049D01*
X409098Y341000D01*
Y362435D01*
X483435D01*
Y299265D01*
D02*
G37*
G36*
X216210Y219270D02*
X223000D01*
Y216730D01*
X216210D01*
Y211210D01*
X216210D01*
X216210Y211210D01*
X216250Y209957D01*
Y206588D01*
X205000D01*
X203244Y206239D01*
X202622Y205823D01*
X192578D01*
Y209500D01*
X192323Y210781D01*
Y213915D01*
X192951Y214040D01*
X194605Y215145D01*
X195710Y216799D01*
X196021Y218364D01*
X201834Y224177D01*
X216210D01*
Y219270D01*
D02*
G37*
G36*
X242085Y212768D02*
Y207270D01*
X242085D01*
Y206070D01*
X242085D01*
Y204143D01*
X241320D01*
X239857Y203852D01*
X238616Y203024D01*
X236546Y200954D01*
X235718Y199713D01*
X235427Y198250D01*
Y188834D01*
X221462Y174869D01*
X220156Y175359D01*
X219871Y176790D01*
X218766Y178444D01*
X217701Y179155D01*
X217431Y180681D01*
X222386Y185636D01*
X223951Y185947D01*
X225605Y187053D01*
X226710Y188706D01*
X227098Y190657D01*
X226710Y192608D01*
X225605Y194262D01*
X223951Y195367D01*
X222000Y195755D01*
X220049Y195367D01*
X218395Y194262D01*
X217290Y192608D01*
X216979Y191043D01*
X213362Y187427D01*
X212989Y187602D01*
X212315Y188176D01*
X212578Y189500D01*
X212268Y191061D01*
X211384Y192384D01*
X210061Y193268D01*
X208500Y193578D01*
X206823D01*
Y197412D01*
X216250D01*
Y197250D01*
X229750D01*
Y202093D01*
X240912Y213255D01*
X242085Y212768D01*
D02*
G37*
G36*
X129422Y207643D02*
Y198500D01*
X129732Y196939D01*
X130616Y195616D01*
X131939Y194732D01*
X133500Y194422D01*
X135061Y194732D01*
X136000Y195360D01*
X136939Y194732D01*
X138500Y194422D01*
X140061Y194732D01*
X141000Y195360D01*
X141939Y194732D01*
X143500Y194422D01*
X143592Y194440D01*
X144355Y193297D01*
X143790Y192451D01*
X143402Y190500D01*
X143790Y188549D01*
X144895Y186895D01*
X146549Y185790D01*
X148500Y185402D01*
X150451Y185790D01*
X152105Y186895D01*
X153210Y188549D01*
X153598Y190500D01*
X153210Y192451D01*
X152676Y193250D01*
X153440Y194393D01*
X153500Y194381D01*
X155076Y194694D01*
X156036Y195336D01*
X156939Y194732D01*
X158500Y194422D01*
X160061Y194732D01*
X161000Y195360D01*
X161939Y194732D01*
X163500Y194422D01*
X165061Y194732D01*
X166000Y195360D01*
X166939Y194732D01*
X168500Y194422D01*
X169168Y194555D01*
X169932Y193412D01*
X169290Y192451D01*
X168902Y190500D01*
X169290Y188549D01*
X170395Y186895D01*
X172049Y185790D01*
X174000Y185402D01*
X175951Y185790D01*
X176903Y186427D01*
X183750D01*
X185213Y186718D01*
X186454Y187546D01*
X191108Y192201D01*
X191937Y193441D01*
X192228Y194904D01*
Y196879D01*
X192268Y196939D01*
X192514Y198177D01*
X199177D01*
Y193578D01*
X197500D01*
X195939Y193268D01*
X194616Y192384D01*
X193732Y191061D01*
X193422Y189500D01*
X193732Y187939D01*
X194336Y187036D01*
X193694Y186076D01*
X193381Y184500D01*
X193420Y184305D01*
X192614Y183323D01*
X182500D01*
X181037Y183032D01*
X179796Y182204D01*
X179614Y182021D01*
X178049Y181710D01*
X176395Y180605D01*
X175290Y178951D01*
X174902Y177000D01*
X175290Y175049D01*
X176395Y173395D01*
X178049Y172290D01*
X180000Y171902D01*
X180872Y172076D01*
X181498Y170905D01*
X179614Y169021D01*
X178049Y168710D01*
X176395Y167605D01*
X175290Y165951D01*
X174902Y164000D01*
X175290Y162049D01*
X176395Y160395D01*
X178049Y159290D01*
X180000Y158902D01*
X181951Y159290D01*
X183605Y160395D01*
X184710Y162049D01*
X185021Y163614D01*
X191581Y170174D01*
X192348Y170142D01*
X193422Y169500D01*
X193732Y167939D01*
X194360Y167000D01*
X193732Y166061D01*
X193422Y164500D01*
X193732Y162939D01*
X194360Y162000D01*
X193732Y161061D01*
X193466Y159725D01*
X192750Y159237D01*
X192220Y159030D01*
X191951Y159210D01*
X190000Y159598D01*
X188049Y159210D01*
X186395Y158105D01*
X185290Y156451D01*
X184902Y154500D01*
X185290Y152549D01*
X186395Y150895D01*
X188049Y149790D01*
X190000Y149402D01*
X191951Y149790D01*
X192220Y149970D01*
X192750Y149763D01*
X193466Y149275D01*
X193732Y147939D01*
X194360Y147000D01*
X193732Y146061D01*
X193422Y144500D01*
X193732Y142939D01*
X194360Y142000D01*
X193732Y141061D01*
X193422Y139500D01*
X193460Y139305D01*
X192655Y138323D01*
X189415D01*
X181245Y146494D01*
X180005Y147322D01*
X178542Y147613D01*
X163000D01*
X161537Y147322D01*
X160296Y146494D01*
X150916Y137113D01*
X137512D01*
X137025Y138287D01*
X146915Y148177D01*
X151722D01*
X153049Y147290D01*
X155000Y146902D01*
X156951Y147290D01*
X158605Y148395D01*
X159710Y150049D01*
X160098Y152000D01*
X159710Y153951D01*
X158605Y155605D01*
X156951Y156710D01*
X155000Y157098D01*
X153049Y156710D01*
X151722Y155823D01*
X145332D01*
X143868Y155532D01*
X142628Y154704D01*
X130032Y142107D01*
X128520Y142375D01*
X128268Y142939D01*
X128578Y144500D01*
X128268Y146061D01*
X127640Y147000D01*
X128268Y147939D01*
X128578Y149500D01*
X128268Y151061D01*
X127640Y152000D01*
X128268Y152939D01*
X128578Y154500D01*
X128268Y156061D01*
X127640Y157000D01*
X128268Y157939D01*
X128578Y159500D01*
X128268Y161061D01*
X127640Y162000D01*
X128268Y162939D01*
X128578Y164500D01*
X128268Y166061D01*
X127640Y167000D01*
X128268Y167939D01*
X128578Y169500D01*
X128268Y171061D01*
X127640Y172000D01*
X128268Y172939D01*
X128578Y174500D01*
X128268Y176061D01*
X127640Y177000D01*
X128268Y177939D01*
X128578Y179500D01*
X128268Y181061D01*
X127640Y182000D01*
X128268Y182939D01*
X128578Y184500D01*
X128268Y186061D01*
X127640Y187000D01*
X128268Y187939D01*
X128578Y189500D01*
X128268Y191061D01*
X127448Y192287D01*
Y207273D01*
X127510Y207332D01*
X127605Y207395D01*
X127656Y207472D01*
X128233Y208025D01*
X129422Y207643D01*
D02*
G37*
G36*
X109424Y139715D02*
X109381Y139500D01*
X109694Y137924D01*
X110336Y136964D01*
X109732Y136061D01*
X109422Y134500D01*
X109732Y132939D01*
X110616Y131616D01*
X111939Y130732D01*
X112352Y130650D01*
X112844Y129516D01*
X111599Y129277D01*
X110951Y129710D01*
X109000Y130098D01*
X107049Y129710D01*
X105395Y128605D01*
X104290Y126951D01*
X103902Y125000D01*
X104290Y123049D01*
X105395Y121395D01*
X107049Y120290D01*
X109000Y119902D01*
X109852Y120071D01*
X110477Y118901D01*
X81400Y89823D01*
X60705D01*
X60079Y91093D01*
X60178Y91222D01*
X60833Y92803D01*
X61056Y94500D01*
X60833Y96197D01*
X60178Y97778D01*
X59136Y99136D01*
X57973Y100028D01*
X57864Y100750D01*
X57973Y101472D01*
X59136Y102364D01*
X60178Y103722D01*
X60833Y105303D01*
X61056Y107000D01*
X60833Y108697D01*
X60178Y110278D01*
X59136Y111636D01*
X57973Y112528D01*
X57864Y113250D01*
X57973Y113972D01*
X59136Y114864D01*
X60178Y116222D01*
X60833Y117803D01*
X60965Y118808D01*
X64204Y122046D01*
X65032Y123287D01*
X65323Y124750D01*
Y136166D01*
X69854Y140697D01*
X108618D01*
X109424Y139715D01*
D02*
G37*
G36*
X241534Y176190D02*
X252210D01*
Y174920D01*
X253480D01*
Y169130D01*
X254000D01*
Y160000D01*
X249000D01*
Y124000D01*
X254000D01*
Y115000D01*
Y103000D01*
X258451D01*
Y99000D01*
X258645Y98025D01*
X259198Y97198D01*
X260025Y96645D01*
X261000Y96451D01*
X275000D01*
X275975Y96645D01*
X276802Y97198D01*
X277355Y98025D01*
X277549Y99000D01*
Y103000D01*
X281000D01*
Y115000D01*
X311435D01*
Y59000D01*
X311693Y57042D01*
X312449Y55218D01*
X313510Y53835D01*
X313186Y52565D01*
X295133D01*
X263349Y84349D01*
X239065Y108633D01*
Y120000D01*
X238807Y121958D01*
X238051Y123782D01*
X237806Y124102D01*
Y129750D01*
X237750Y130176D01*
Y135957D01*
X237790Y137210D01*
X237790Y138003D01*
Y142730D01*
X224210D01*
Y138003D01*
X224210Y137210D01*
X224250Y135957D01*
Y127565D01*
X198000D01*
X196042Y127307D01*
X194218Y126551D01*
X193737Y126183D01*
X192338Y126709D01*
X192268Y127061D01*
X191384Y128384D01*
X190061Y129268D01*
X189364Y129406D01*
X189489Y130676D01*
X196218D01*
X197500Y130422D01*
X208500D01*
X210061Y130732D01*
X211384Y131616D01*
X212268Y132939D01*
X212578Y134500D01*
X212268Y136061D01*
X211640Y137000D01*
X212268Y137939D01*
X212578Y139500D01*
X212268Y141061D01*
X211640Y142000D01*
X212268Y142939D01*
X212578Y144500D01*
X212268Y146061D01*
X211640Y147000D01*
X212268Y147939D01*
X212578Y149500D01*
X212268Y151061D01*
X211640Y152000D01*
X212268Y152939D01*
X212578Y154500D01*
X212540Y154695D01*
X213345Y155676D01*
X218500D01*
X219963Y155968D01*
X221203Y156796D01*
X240872Y176465D01*
X241534Y176190D01*
D02*
G37*
G36*
X491931Y62574D02*
Y41709D01*
X490661Y41254D01*
X487561Y43799D01*
X483652Y45888D01*
X479411Y47174D01*
X475000Y47609D01*
X470589Y47174D01*
X466348Y45888D01*
X462439Y43799D01*
X459013Y40987D01*
X456201Y37561D01*
X454112Y33652D01*
X452826Y29411D01*
X452391Y25000D01*
X452826Y20589D01*
X454112Y16348D01*
X456201Y12439D01*
X458746Y9339D01*
X458291Y8069D01*
X407270D01*
X407017Y9339D01*
X407282Y9449D01*
X408849Y10651D01*
X410051Y12218D01*
X410807Y14042D01*
X411065Y16000D01*
Y57435D01*
X482000D01*
X483958Y57693D01*
X485782Y58449D01*
X487349Y59651D01*
X490758Y63060D01*
X491931Y62574D01*
D02*
G37*
%LPC*%
G36*
X149790Y457790D02*
X144270D01*
Y452270D01*
X149790D01*
Y457790D01*
D02*
G37*
G36*
X184790D02*
X179270D01*
Y452270D01*
X184790D01*
Y457790D01*
D02*
G37*
G36*
X176730D02*
X171210D01*
Y452270D01*
X176730D01*
Y457790D01*
D02*
G37*
G36*
X166790D02*
X161270D01*
Y452270D01*
X166790D01*
Y457790D01*
D02*
G37*
G36*
X158730D02*
X153210D01*
Y452270D01*
X158730D01*
Y457790D01*
D02*
G37*
G36*
X131790D02*
X126270D01*
Y452270D01*
X131790D01*
Y457790D01*
D02*
G37*
G36*
X141730D02*
X136210D01*
Y452270D01*
X141730D01*
Y457790D01*
D02*
G37*
G36*
X379770Y455200D02*
Y438970D01*
X396000D01*
X395786Y441138D01*
X394783Y444445D01*
X393154Y447492D01*
X390963Y450163D01*
X388292Y452355D01*
X385245Y453983D01*
X381939Y454986D01*
X379770Y455200D01*
D02*
G37*
G36*
X377230Y455200D02*
X375062Y454986D01*
X371755Y453983D01*
X368708Y452355D01*
X366037Y450163D01*
X363845Y447492D01*
X362217Y444445D01*
X361214Y441138D01*
X361000Y438970D01*
X377230D01*
Y455200D01*
D02*
G37*
G36*
X184790Y449730D02*
X171210D01*
Y445004D01*
X171210Y444210D01*
X171250Y442957D01*
Y430250D01*
X178079D01*
X179097Y428980D01*
X178902Y427999D01*
X179290Y426048D01*
X180395Y424394D01*
X182049Y423289D01*
X184000Y422901D01*
X185951Y423289D01*
X187604Y424394D01*
X188710Y426048D01*
X189098Y427999D01*
X188710Y429950D01*
X187745Y431393D01*
X187532Y432463D01*
X186704Y433704D01*
X184750Y435657D01*
Y442957D01*
X184790Y444210D01*
X184790Y445003D01*
Y449730D01*
D02*
G37*
G36*
X377230Y436430D02*
X361000D01*
X361214Y434262D01*
X362217Y430955D01*
X363845Y427908D01*
X366037Y425237D01*
X368708Y423046D01*
X371755Y421417D01*
X375062Y420414D01*
X377230Y420200D01*
Y436430D01*
D02*
G37*
G36*
X241730Y411730D02*
X236210D01*
Y406210D01*
X241730D01*
Y411730D01*
D02*
G37*
G36*
X396000Y436430D02*
X379770D01*
Y420200D01*
X381939Y420414D01*
X385245Y421417D01*
X388292Y423046D01*
X390698Y425020D01*
X391699Y424199D01*
X390897Y422698D01*
X389782Y419023D01*
X389406Y415200D01*
X389782Y411377D01*
X390897Y407701D01*
X392708Y404314D01*
X395145Y401345D01*
X398114Y398908D01*
X401502Y397097D01*
X405177Y395982D01*
X409000Y395606D01*
X412823Y395982D01*
X416498Y397097D01*
X419886Y398908D01*
X422855Y401345D01*
X425292Y404314D01*
X427103Y407701D01*
X428218Y411377D01*
X428594Y415200D01*
X428218Y419023D01*
X427103Y422698D01*
X425292Y426086D01*
X422855Y429055D01*
X419886Y431492D01*
X416498Y433303D01*
X412823Y434418D01*
X409000Y434794D01*
X405177Y434418D01*
X401502Y433303D01*
X398114Y431492D01*
X395145Y429055D01*
X394212Y429887D01*
X394783Y430955D01*
X395786Y434262D01*
X396000Y436430D01*
D02*
G37*
G36*
X74980Y400790D02*
X69460D01*
Y395270D01*
X74980D01*
Y400790D01*
D02*
G37*
G36*
Y392730D02*
X69460D01*
Y387210D01*
X71081D01*
X71206Y385940D01*
X70049Y385710D01*
X68395Y384605D01*
X67290Y382951D01*
X66902Y381000D01*
X67290Y379049D01*
X68177Y377722D01*
Y374750D01*
X65250D01*
Y362043D01*
X65210Y360790D01*
X65210Y359997D01*
Y355270D01*
X78790D01*
Y359997D01*
X78790Y360790D01*
X78750Y362043D01*
Y374750D01*
X75823D01*
Y377722D01*
X76710Y379049D01*
X77098Y381000D01*
X76710Y382951D01*
X75605Y384605D01*
X73951Y385710D01*
X72794Y385940D01*
X72919Y387210D01*
X74980D01*
Y392730D01*
D02*
G37*
G36*
X70730Y352730D02*
X65210D01*
Y347210D01*
X70730D01*
Y352730D01*
D02*
G37*
G36*
X60250Y341348D02*
X58299Y340960D01*
X56645Y339855D01*
X55540Y338201D01*
X55229Y336636D01*
X51666Y333073D01*
X50000D01*
Y337000D01*
X32000D01*
Y321500D01*
X50000D01*
Y325427D01*
X53250D01*
X54713Y325718D01*
X55954Y326546D01*
X60636Y331229D01*
X62201Y331540D01*
X63855Y332645D01*
X64960Y334299D01*
X65348Y336250D01*
X64960Y338201D01*
X63855Y339855D01*
X62201Y340960D01*
X60250Y341348D01*
D02*
G37*
G36*
X18290Y234790D02*
X14020D01*
Y226520D01*
X18290D01*
Y234790D01*
D02*
G37*
G36*
Y223980D02*
X14020D01*
Y215710D01*
X18290D01*
Y223980D01*
D02*
G37*
G36*
X39250Y234750D02*
X28250D01*
Y215750D01*
X29927D01*
Y189750D01*
X28250D01*
Y170750D01*
X39250D01*
Y189750D01*
X37573D01*
Y211177D01*
X46722D01*
X48049Y210290D01*
X50000Y209902D01*
X51951Y210290D01*
X53605Y211395D01*
X54710Y213049D01*
X55098Y215000D01*
X54710Y216951D01*
X53605Y218605D01*
X51951Y219710D01*
X50000Y220098D01*
X48049Y219710D01*
X46722Y218823D01*
X39250D01*
Y234750D01*
D02*
G37*
G36*
X18290Y189790D02*
X14020D01*
Y181520D01*
X18290D01*
Y189790D01*
D02*
G37*
G36*
Y178980D02*
X14020D01*
Y170710D01*
X18290D01*
Y178980D01*
D02*
G37*
G36*
X24020Y138429D02*
Y133270D01*
X29179D01*
X29122Y133707D01*
X28463Y135298D01*
X27415Y136664D01*
X26048Y137713D01*
X24457Y138372D01*
X24020Y138429D01*
D02*
G37*
G36*
X21480Y138429D02*
X21043Y138372D01*
X19452Y137713D01*
X18086Y136664D01*
X17038Y135298D01*
X16379Y133707D01*
X16321Y133270D01*
X21480D01*
Y138429D01*
D02*
G37*
G36*
X162500Y75348D02*
X160549Y74960D01*
X158895Y73855D01*
X157790Y72201D01*
X157511Y70797D01*
X156000Y71098D01*
X154049Y70710D01*
X152395Y69605D01*
X151290Y67951D01*
X150902Y66000D01*
X151290Y64049D01*
X151477Y63770D01*
X150798Y62500D01*
X145000D01*
Y53443D01*
X144912Y53000D01*
Y43252D01*
X144761Y43026D01*
X144412Y41271D01*
Y41049D01*
X144402Y41000D01*
X144790Y39049D01*
X145895Y37395D01*
X147549Y36290D01*
X149500Y35902D01*
X151451Y36290D01*
X153105Y37395D01*
X154210Y39049D01*
X154598Y41000D01*
X154353Y42230D01*
X155230Y43466D01*
X155297Y43500D01*
X164460D01*
Y43460D01*
X167730D01*
Y53000D01*
Y62540D01*
X166323D01*
Y66972D01*
X167210Y68299D01*
X167598Y70250D01*
X167210Y72201D01*
X166105Y73855D01*
X164451Y74960D01*
X162500Y75348D01*
D02*
G37*
G36*
X199770Y70638D02*
Y59470D01*
X206105D01*
Y63200D01*
X205846Y65168D01*
X205086Y67003D01*
X203878Y68578D01*
X202302Y69786D01*
X200468Y70546D01*
X199770Y70638D01*
D02*
G37*
G36*
X197230D02*
X196532Y70546D01*
X194697Y69786D01*
X193122Y68578D01*
X191914Y67003D01*
X191154Y65168D01*
X190895Y63200D01*
Y59470D01*
X197230D01*
Y70638D01*
D02*
G37*
G36*
X127770D02*
Y59470D01*
X134105D01*
Y63200D01*
X133846Y65168D01*
X133086Y67003D01*
X131878Y68578D01*
X130302Y69786D01*
X128468Y70546D01*
X127770Y70638D01*
D02*
G37*
G36*
X125230D02*
X124532Y70546D01*
X122697Y69786D01*
X121122Y68578D01*
X119914Y67003D01*
X119154Y65168D01*
X118895Y63200D01*
Y59470D01*
X125230D01*
Y70638D01*
D02*
G37*
G36*
X180040Y62540D02*
X176770D01*
Y54270D01*
X180040D01*
Y62540D01*
D02*
G37*
G36*
X206105Y56930D02*
X199770D01*
Y45762D01*
X200468Y45854D01*
X202302Y46614D01*
X203878Y47822D01*
X205086Y49398D01*
X205846Y51232D01*
X206105Y53200D01*
Y56930D01*
D02*
G37*
G36*
X197230D02*
X190895D01*
Y53200D01*
X191154Y51232D01*
X191914Y49398D01*
X193122Y47822D01*
X194697Y46614D01*
X196532Y45854D01*
X197230Y45762D01*
Y56930D01*
D02*
G37*
G36*
X134105D02*
X127770D01*
Y45762D01*
X128468Y45854D01*
X130302Y46614D01*
X131878Y47822D01*
X133086Y49398D01*
X133846Y51232D01*
X134105Y53200D01*
Y56930D01*
D02*
G37*
G36*
X125230D02*
X118895D01*
Y53200D01*
X119154Y51232D01*
X119914Y49398D01*
X121122Y47822D01*
X122697Y46614D01*
X124532Y45854D01*
X125230Y45762D01*
Y56930D01*
D02*
G37*
G36*
X180040Y51730D02*
X176770D01*
Y43460D01*
X180040D01*
Y51730D01*
D02*
G37*
G36*
X174230Y62540D02*
X170270D01*
Y53000D01*
Y43460D01*
X174230D01*
Y53000D01*
Y62540D01*
D02*
G37*
G36*
X199770Y35938D02*
Y24770D01*
X206105D01*
Y28500D01*
X205846Y30468D01*
X205086Y32303D01*
X203878Y33878D01*
X202302Y35086D01*
X200468Y35846D01*
X199770Y35938D01*
D02*
G37*
G36*
X197230D02*
X196532Y35846D01*
X194697Y35086D01*
X193122Y33878D01*
X191914Y32303D01*
X191154Y30468D01*
X190895Y28500D01*
Y24770D01*
X197230D01*
Y35938D01*
D02*
G37*
G36*
X127770D02*
Y24770D01*
X134105D01*
Y28500D01*
X133846Y30468D01*
X133086Y32303D01*
X131878Y33878D01*
X130302Y35086D01*
X128468Y35846D01*
X127770Y35938D01*
D02*
G37*
G36*
X125230D02*
X124532Y35846D01*
X122697Y35086D01*
X121122Y33878D01*
X119914Y32303D01*
X119154Y30468D01*
X118895Y28500D01*
Y24770D01*
X125230D01*
Y35938D01*
D02*
G37*
G36*
X377230Y22540D02*
X371960D01*
Y17270D01*
X377230D01*
Y22540D01*
D02*
G37*
G36*
X185540Y19540D02*
X178770D01*
Y13270D01*
X185540D01*
Y19540D01*
D02*
G37*
G36*
X176230D02*
X169460D01*
Y13270D01*
X176230D01*
Y19540D01*
D02*
G37*
G36*
X155540D02*
X148770D01*
Y13270D01*
X155540D01*
Y19540D01*
D02*
G37*
G36*
X146230D02*
X139460D01*
Y13270D01*
X146230D01*
Y19540D01*
D02*
G37*
G36*
X206105Y22230D02*
X199770D01*
Y11062D01*
X200468Y11154D01*
X202302Y11914D01*
X203878Y13122D01*
X205086Y14698D01*
X205846Y16532D01*
X206105Y18500D01*
Y22230D01*
D02*
G37*
G36*
X197230D02*
X190895D01*
Y18500D01*
X191154Y16532D01*
X191914Y14698D01*
X193122Y13122D01*
X194697Y11914D01*
X196532Y11154D01*
X197230Y11062D01*
Y22230D01*
D02*
G37*
G36*
X134105D02*
X127770D01*
Y11062D01*
X128468Y11154D01*
X130302Y11914D01*
X131878Y13122D01*
X133086Y14698D01*
X133846Y16532D01*
X134105Y18500D01*
Y22230D01*
D02*
G37*
G36*
X125230D02*
X118895D01*
Y18500D01*
X119154Y16532D01*
X119914Y14698D01*
X121122Y13122D01*
X122697Y11914D01*
X124532Y11154D01*
X125230Y11062D01*
Y22230D01*
D02*
G37*
G36*
X377230Y14730D02*
X371960D01*
Y9460D01*
X377230D01*
Y14730D01*
D02*
G37*
G36*
X321370Y414931D02*
Y403720D01*
X332581D01*
X332317Y405724D01*
X331054Y408774D01*
X329044Y411394D01*
X326424Y413404D01*
X323374Y414667D01*
X321370Y414931D01*
D02*
G37*
G36*
X318830D02*
X316826Y414667D01*
X313776Y413404D01*
X311156Y411394D01*
X309146Y408774D01*
X307883Y405724D01*
X307619Y403720D01*
X318830D01*
Y414931D01*
D02*
G37*
G36*
X191770Y335367D02*
Y327270D01*
X194619D01*
Y331500D01*
X194306Y333076D01*
X193413Y334413D01*
X192076Y335306D01*
X191770Y335367D01*
D02*
G37*
G36*
X194619Y324730D02*
X191770D01*
Y316634D01*
X192076Y316695D01*
X193413Y317587D01*
X194306Y318924D01*
X194619Y320500D01*
Y324730D01*
D02*
G37*
G36*
X222750Y325598D02*
X220799Y325210D01*
X219145Y324105D01*
X218040Y322451D01*
X217652Y320500D01*
X218040Y318549D01*
X219145Y316895D01*
X220799Y315790D01*
X222750Y315402D01*
X224701Y315790D01*
X224980Y315977D01*
X226250Y315298D01*
Y311823D01*
X224278D01*
X222951Y312710D01*
X221000Y313098D01*
X219049Y312710D01*
X217395Y311605D01*
X216290Y309951D01*
X215902Y308000D01*
X216290Y306049D01*
X217395Y304395D01*
X219049Y303290D01*
X221000Y302902D01*
X222951Y303290D01*
X224278Y304177D01*
X226250D01*
Y303000D01*
X238957D01*
X240210Y302960D01*
X241003Y302960D01*
X245730D01*
Y309750D01*
X247000D01*
Y311020D01*
X253790D01*
X253790Y316540D01*
X255004Y316677D01*
X263539D01*
X264395Y315395D01*
X266049Y314290D01*
X268000Y313902D01*
X269951Y314290D01*
X271605Y315395D01*
X272710Y317049D01*
X273098Y319000D01*
X272710Y320951D01*
X271605Y322605D01*
X269951Y323710D01*
X268000Y324098D01*
X267375Y323974D01*
X267287Y324032D01*
X265823Y324323D01*
X226028D01*
X224701Y325210D01*
X222750Y325598D01*
D02*
G37*
G36*
X253790Y308480D02*
X248270D01*
Y302960D01*
X253790D01*
Y308480D01*
D02*
G37*
G36*
X169270Y304790D02*
Y299270D01*
X174790D01*
Y304790D01*
X169270D01*
D02*
G37*
G36*
X174790Y296730D02*
X169270D01*
Y291210D01*
X174790D01*
Y296730D01*
D02*
G37*
G36*
X207790Y294790D02*
X202270D01*
Y289270D01*
X207790D01*
Y294790D01*
D02*
G37*
G36*
X199730D02*
X194210D01*
Y289270D01*
X199730D01*
Y294790D01*
D02*
G37*
G36*
X227730Y290290D02*
X224210D01*
Y284770D01*
X227730D01*
Y290290D01*
D02*
G37*
G36*
X165540Y288040D02*
X157770D01*
Y281520D01*
X165540D01*
Y288040D01*
D02*
G37*
G36*
X188540Y269540D02*
X180770D01*
Y263020D01*
X188540D01*
Y269540D01*
D02*
G37*
G36*
X178230D02*
X170460D01*
Y263020D01*
X178230D01*
Y269540D01*
D02*
G37*
G36*
X287230Y259540D02*
X281960D01*
Y254270D01*
X287230D01*
Y259540D01*
D02*
G37*
G36*
X178230Y260480D02*
X170460D01*
Y253960D01*
X178230D01*
Y260480D01*
D02*
G37*
G36*
X227730Y253230D02*
X224210D01*
Y247710D01*
X227730D01*
Y253230D01*
D02*
G37*
G36*
X220730Y244790D02*
X215210D01*
Y239270D01*
X220730D01*
Y244790D01*
D02*
G37*
G36*
X409000Y320494D02*
X405177Y320118D01*
X401502Y319003D01*
X398114Y317192D01*
X395145Y314755D01*
X392708Y311786D01*
X390897Y308398D01*
X389782Y304723D01*
X389406Y300900D01*
X389782Y297077D01*
X390897Y293402D01*
X391699Y291901D01*
X390698Y291080D01*
X388292Y293055D01*
X385245Y294683D01*
X381939Y295686D01*
X379770Y295900D01*
Y279670D01*
X396000D01*
X395786Y281838D01*
X394783Y285145D01*
X394212Y286213D01*
X395145Y287045D01*
X398114Y284608D01*
X401502Y282797D01*
X405177Y281682D01*
X409000Y281306D01*
X412823Y281682D01*
X416498Y282797D01*
X419886Y284608D01*
X422855Y287045D01*
X425292Y290014D01*
X427103Y293402D01*
X428218Y297077D01*
X428594Y300900D01*
X428218Y304723D01*
X427103Y308398D01*
X425292Y311786D01*
X422855Y314755D01*
X419886Y317192D01*
X416498Y319003D01*
X412823Y320118D01*
X409000Y320494D01*
D02*
G37*
G36*
X377230Y295900D02*
X375062Y295686D01*
X371755Y294683D01*
X368708Y293055D01*
X366037Y290863D01*
X363845Y288192D01*
X362217Y285145D01*
X361214Y281838D01*
X361000Y279670D01*
X377230D01*
Y295900D01*
D02*
G37*
G36*
X444540Y95540D02*
X437270D01*
Y86270D01*
X444540D01*
Y95540D01*
D02*
G37*
G36*
X434730D02*
X427460D01*
Y86270D01*
X434730D01*
Y95540D01*
D02*
G37*
G36*
X444540Y83730D02*
X437270D01*
Y74460D01*
X444540D01*
Y83730D01*
D02*
G37*
G36*
X434730D02*
X427460D01*
Y74460D01*
X434730D01*
Y83730D01*
D02*
G37*
G36*
X250940Y173650D02*
X242045D01*
Y169130D01*
X250940D01*
Y173650D01*
D02*
G37*
G36*
X237790Y150790D02*
X232270D01*
Y145270D01*
X237790D01*
Y150790D01*
D02*
G37*
G36*
X229730D02*
X224210D01*
Y145270D01*
X229730D01*
Y150790D01*
D02*
G37*
%LPD*%
D11*
X239000Y238000D02*
Y254500D01*
X188404Y202000D02*
Y203904D01*
X186000Y340000D02*
Y350500D01*
Y340000D02*
X190404Y335596D01*
X249000Y234813D02*
Y239000D01*
X242000Y227812D02*
X249000Y234813D01*
Y239000D02*
Y254500D01*
Y239000D02*
X299500D01*
X239000Y235000D02*
Y238000D01*
X232000Y228000D02*
X239000Y235000D01*
X303000Y234000D02*
X312000Y243000D01*
X256250Y234000D02*
X303000D01*
X226250Y204000D02*
X256250Y234000D01*
X299500Y239000D02*
X313500Y253000D01*
X296000Y244000D02*
X301000Y249000D01*
X256750Y244000D02*
X296000D01*
X256750D02*
Y256750D01*
X316000Y243000D02*
X321000Y248000D01*
X312000Y243000D02*
X316000Y243000D01*
X301000Y249000D02*
Y253000D01*
X321000Y248000D02*
X326000Y253000D01*
X199750Y90500D02*
X238000Y52250D01*
Y29500D02*
Y52250D01*
Y29500D02*
X245500Y22000D01*
X208000Y247901D02*
Y255000D01*
X183480Y223381D02*
X208000Y247901D01*
X183480Y214610D02*
Y223381D01*
X222000Y238000D02*
Y245500D01*
X229000Y252500D01*
Y254500D01*
X200250Y228000D02*
X232000D01*
X191000Y218750D02*
X200250Y228000D01*
X12750Y224250D02*
X13500Y225000D01*
X82500Y354000D02*
Y378750D01*
X185397Y404467D02*
Y422000D01*
X267522Y288478D02*
X268000Y288000D01*
X267522Y288478D02*
Y289228D01*
X247000Y309750D02*
X267522Y289228D01*
X47000Y81000D02*
X83315D01*
X38750Y89250D02*
X47000Y81000D01*
X38750Y89250D02*
Y98425D01*
X30175Y107000D02*
X38750Y98425D01*
X22750Y107000D02*
X30175D01*
X293000Y200000D02*
X306130D01*
X295000Y188000D02*
X306070D01*
X306450Y187620D01*
X252530Y200000D02*
X264000D01*
X252210Y200320D02*
X252530Y200000D01*
X264000D02*
X264827D01*
X265000Y200173D01*
X252830Y187000D02*
X264000D01*
X252210Y187620D02*
X252830Y187000D01*
X457800Y316900D02*
Y349800D01*
X188404Y194904D02*
Y202000D01*
X196685Y406065D02*
Y419315D01*
X190500Y298500D02*
Y326000D01*
X16000Y348750D02*
Y352250D01*
X22250Y358500D01*
X32750Y357000D02*
X35750Y354000D01*
X32250Y357000D02*
X32750D01*
X33750Y214750D02*
Y225250D01*
Y180250D02*
Y214750D01*
X34000Y215000D01*
X50000D01*
X12750Y180250D02*
Y224250D01*
X12750Y142000D02*
Y179500D01*
Y142000D02*
X22750Y132000D01*
X12750Y180250D02*
X13500Y179500D01*
X53750Y106250D02*
Y107250D01*
X50250Y141000D02*
X57000D01*
X47000Y137750D02*
X50250Y141000D01*
X47000Y114000D02*
Y137750D01*
Y114000D02*
X53750Y107250D01*
X68270Y144520D02*
X118980D01*
X61500Y137750D02*
X68270Y144520D01*
X61500Y124750D02*
Y137750D01*
X54500Y119500D02*
X56250D01*
X53500D02*
X54500D01*
X56250D02*
X61500Y124750D01*
X22750Y118040D02*
X26210D01*
X44250Y90750D02*
Y100000D01*
X21000Y107000D02*
X22750D01*
X26210Y118040D02*
X44250Y100000D01*
X24750Y224250D02*
X25000Y224000D01*
X13500Y225000D02*
X14250Y224250D01*
X24750D01*
X101750Y268750D02*
X106750Y273750D01*
X113750Y320767D02*
X132963Y339980D01*
X113750Y283750D02*
Y320767D01*
X106500Y276500D02*
X113750Y283750D01*
X103000Y336000D02*
X112500Y345500D01*
X103000Y295500D02*
Y336000D01*
X81500Y274000D02*
X103000Y295500D01*
X108750Y288750D02*
Y331000D01*
X94000Y274000D02*
X108750Y288750D01*
X79250Y382000D02*
X82500Y378750D01*
X79250Y382000D02*
Y391000D01*
X102250Y378750D02*
X105500Y375500D01*
X82500Y378750D02*
X102250D01*
X223000Y204000D02*
X226250D01*
X143250Y270750D02*
X152500D01*
X143250D02*
Y287250D01*
X152500Y270750D02*
X155250Y268000D01*
X143250Y247750D02*
Y270750D01*
Y247750D02*
X163500Y227500D01*
X155250Y263000D02*
Y268000D01*
X155250Y261750D02*
X156500D01*
X176250D02*
X179500D01*
X119000Y139500D02*
X125185D01*
X166315Y184596D02*
X193596D01*
X166315Y181315D02*
Y184596D01*
X139000Y154000D02*
X166315Y181315D01*
X153500Y197815D02*
Y204000D01*
X239250Y198250D02*
X241320Y200320D01*
X239250Y187250D02*
Y198250D01*
X216596Y164596D02*
X239250Y187250D01*
X95770Y399520D02*
X149480D01*
X145000Y399500D02*
X149500D01*
X251161Y397000D02*
X257000D01*
Y404000D02*
Y413000D01*
X111000Y380500D02*
X121000D01*
X106000Y385500D02*
X111000Y380500D01*
X106000Y385500D02*
Y389000D01*
X53250Y329250D02*
X60250Y336250D01*
X41000Y329250D02*
X53250D01*
X35750Y352750D02*
Y354000D01*
Y352750D02*
X39750Y348750D01*
X41000D01*
X15000D02*
X16000D01*
X128399Y360500D02*
X135109Y353790D01*
X135641D01*
X104230Y365230D02*
X130669D01*
X130919Y364980D02*
X131018D01*
X130669Y365230D02*
X130919Y364980D01*
X141500Y380500D02*
X143000Y382000D01*
X121000Y380500D02*
X141500D01*
X162500Y53000D02*
Y70250D01*
X101750Y182250D02*
Y268750D01*
X97250Y181250D02*
Y268250D01*
X94000Y271500D02*
X97250Y268250D01*
X94000Y271500D02*
Y274000D01*
X119000Y274000D02*
Y320685D01*
X106000Y261000D02*
X119000Y274000D01*
X106000Y184500D02*
Y261000D01*
X92690Y179560D02*
Y262310D01*
X81500Y273500D02*
X92690Y262310D01*
X46750Y276500D02*
X77000Y246250D01*
X24500Y276500D02*
X46750D01*
X18000Y270000D02*
X24500Y276500D01*
X51250Y287250D02*
X88000Y250500D01*
X25750Y287250D02*
X51250D01*
X18000Y295000D02*
X25750Y287250D01*
X81500Y274000D02*
X82000Y273500D01*
X94000Y274000D02*
X94000Y274000D01*
X106500D02*
Y276500D01*
Y274000D02*
X106750Y273750D01*
X148500Y190500D02*
Y204000D01*
X130392Y137060D02*
X145332Y152000D01*
X155000D01*
X174000Y190500D02*
X174250Y190250D01*
X183750D01*
X188404Y194904D01*
Y203904D02*
X188500Y204000D01*
X188731Y202000D02*
X205000D01*
X103980Y344980D02*
Y354200D01*
X100000Y341000D02*
X103980Y344980D01*
X85000Y341000D02*
X100000D01*
X16750Y282000D02*
X49000D01*
X82750Y248250D01*
X82000Y344000D02*
X85000Y341000D01*
X82000Y344000D02*
X82000D01*
X102750Y169500D02*
X119000D01*
X92690Y179560D02*
X102750Y169500D01*
X97250Y181250D02*
X104000Y174500D01*
X101750Y182250D02*
X104500Y179500D01*
X106000Y184500D02*
X119000D01*
Y320685D02*
X134525Y336210D01*
X112500Y345500D02*
X121000D01*
X197250Y86000D02*
X233000Y50250D01*
Y22000D02*
Y50250D01*
X149500Y399500D02*
X170500D01*
X149500D02*
X149625Y399375D01*
X149480Y399520D02*
X149500Y399500D01*
X145000Y396000D02*
Y399500D01*
X121000Y375500D02*
X171500D01*
X178000Y369000D01*
X167979Y226979D02*
X186125Y245125D01*
X167979Y218568D02*
Y226979D01*
X157750Y280250D02*
X176250Y261750D01*
X256750Y256750D02*
Y279250D01*
X254000Y282000D02*
X256750Y279250D01*
X90250Y394000D02*
X95770Y399520D01*
X143250Y287250D02*
X154000Y298000D01*
X155250Y263000D02*
X156500Y261750D01*
X179500Y280250D02*
X183500Y276250D01*
X198750D01*
X201000Y274000D01*
X178500Y225500D02*
X183000Y230000D01*
X178500Y204000D02*
Y225500D01*
X137000Y241000D02*
Y287000D01*
Y241000D02*
X148520Y229480D01*
X198000Y257000D02*
Y271000D01*
X186125Y245125D02*
X198000Y257000D01*
X104000Y354220D02*
Y365000D01*
X104230Y365230D01*
X103980Y354200D02*
X104000Y354220D01*
X109000Y350500D02*
X121000D01*
X154000Y298000D02*
X157000Y295000D01*
X198000Y271000D02*
X201000Y274000D01*
X83315Y81000D02*
X131835Y129520D01*
X154421D01*
X133500Y109182D02*
Y120000D01*
X128712Y137060D02*
X130392D01*
X126247Y134596D02*
X128712Y137060D01*
X119096Y134596D02*
X126247D01*
X125185Y139500D02*
X138522Y152837D01*
X119000Y139500D02*
X124635D01*
X82983Y86000D02*
X130273Y133290D01*
X152500D01*
X85000Y60682D02*
X133500Y109182D01*
X152500Y133290D02*
X163000Y143790D01*
X104000Y37000D02*
Y59000D01*
X85000Y18000D02*
X104000Y37000D01*
X98750Y40750D02*
Y61082D01*
X88500Y30500D02*
X98750Y40750D01*
X85000Y30500D02*
X88500D01*
X316450Y326050D02*
X319900D01*
X309000Y333500D02*
X316450Y326050D01*
X260500Y333500D02*
X309000D01*
X258000Y331000D02*
X260500Y333500D01*
X188500Y204000D02*
Y215574D01*
X191000Y218074D02*
Y218750D01*
X188500Y215574D02*
X191000Y218074D01*
X77000Y177000D02*
Y246250D01*
X82750Y177250D02*
Y248250D01*
X88000Y178000D02*
Y250500D01*
X169000Y422000D02*
X175500D01*
X165000D02*
X169000D01*
X160000Y451000D02*
X169000D01*
Y422000D02*
Y451000D01*
X158404Y204096D02*
Y215596D01*
X155000Y219000D02*
X158404Y215596D01*
X148520Y204020D02*
Y229480D01*
X148500Y204000D02*
X148520Y204020D01*
X176250Y86000D02*
X197250D01*
X178500Y90500D02*
X199750D01*
X163500Y105500D02*
X178500Y90500D01*
X163500Y105500D02*
Y120000D01*
X158596Y103654D02*
X176250Y86000D01*
X158596Y103654D02*
Y119904D01*
X118904Y128904D02*
Y134404D01*
X115000Y125000D02*
X118904Y128904D01*
X109000Y125000D02*
X115000D01*
X57000Y141000D02*
X65500Y149500D01*
X119000D01*
X203096Y164596D02*
X216596D01*
X245160Y186160D02*
X250750D01*
X218500Y159500D02*
X245160Y186160D01*
X203000Y159500D02*
X218500D01*
X178000Y437000D02*
X184000Y431000D01*
X184000Y427999D02*
Y431000D01*
X184000Y431000D01*
X221000Y308000D02*
X231250D01*
X233000Y309750D01*
X221949Y354125D02*
X222625D01*
X220574Y355500D02*
X221949Y354125D01*
X205000Y355500D02*
X220574D01*
X267323Y319000D02*
X268000D01*
X265823Y320500D02*
X267323Y319000D01*
X222750Y320500D02*
X265823D01*
X230000Y413000D02*
X243000D01*
X222000Y405000D02*
X230000Y413000D01*
X180404Y399500D02*
X184483D01*
X180404D02*
Y409904D01*
X170500Y399500D02*
X180404D01*
X184483D02*
X193000Y390983D01*
X170500Y399500D02*
Y410000D01*
X133574Y394000D02*
X134250D01*
X132073Y395500D02*
X133574Y394000D01*
X121000Y395500D02*
X132073D01*
X134527Y385527D02*
X134553Y385553D01*
X132594Y370404D02*
X132999Y370000D01*
X173500Y134500D02*
X173596Y134404D01*
X76250Y394000D02*
X79250Y391000D01*
X163000Y143790D02*
X178542D01*
X154421Y129520D02*
X164921Y140020D01*
X176980D01*
X167000Y135000D02*
X168404Y133596D01*
X173500Y134500D02*
X174000Y135000D01*
X221799Y401750D02*
Y404799D01*
Y381799D02*
Y401750D01*
X201000D02*
X221799D01*
X196685Y406065D02*
X201000Y401750D01*
X44250Y90750D02*
X49000Y86000D01*
X104000Y59000D02*
X148500Y103500D01*
X98750Y61082D02*
X143500Y105831D01*
X93750Y62750D02*
X138500Y107500D01*
X93750Y44750D02*
Y62750D01*
X92000Y43000D02*
X93750Y44750D01*
X143500Y204000D02*
Y225250D01*
X143500Y225250D01*
X134750Y222500D02*
X138596Y218654D01*
Y204096D02*
Y218654D01*
X133596Y204096D02*
Y212404D01*
X129250Y216750D02*
X133596Y212404D01*
X132750Y309750D02*
Y316750D01*
X135500Y319500D01*
Y326000D01*
X221799Y404799D02*
X222000Y405000D01*
X221598Y381598D02*
X221799Y381799D01*
X205000Y380500D02*
X219824D01*
X123625Y210625D02*
X124000Y211000D01*
X123625Y189731D02*
Y210625D01*
X123394Y189500D02*
X123625Y189731D01*
X119000Y189500D02*
X123394D01*
X82750Y177250D02*
X100500Y159500D01*
X77000Y177000D02*
X99500Y154500D01*
X250000Y331000D02*
X258000D01*
X345500Y313550D02*
Y316750D01*
X333719Y328531D02*
X345500Y316750D01*
X333719Y328531D02*
Y332531D01*
X327480Y338770D02*
X333719Y332531D01*
X261230Y338770D02*
X327480D01*
X256000Y344000D02*
X261230Y338770D01*
X319900Y326050D02*
X320100Y326250D01*
X345500Y338950D02*
Y343000D01*
X333719Y354781D02*
X345500Y343000D01*
X333719Y354781D02*
Y357531D01*
X327000Y364250D02*
X333719Y357531D01*
X306750Y364250D02*
X327000D01*
X295000Y376000D02*
X306750Y364250D01*
X251000Y374000D02*
X278000D01*
X280000Y376000D01*
X301150Y396000D02*
X320100Y377050D01*
X280000Y396000D02*
X301150D01*
X280000D02*
X280850Y395150D01*
X228000Y379111D02*
Y389000D01*
X214485Y365596D02*
X228000Y379111D01*
X216000Y389000D02*
Y390999D01*
X212596Y385596D02*
X216000Y389000D01*
X205096Y385596D02*
X212596D01*
X205096Y365596D02*
X214485D01*
X228000Y389000D02*
X233000Y394000D01*
X247000Y334000D02*
X250000Y331000D01*
X226500Y340500D02*
X233000Y334000D01*
X205000Y340500D02*
X226500D01*
X225500Y345500D02*
X233000Y353000D01*
X205000Y345500D02*
X225500D01*
X165500Y311250D02*
Y325000D01*
X247250Y363926D02*
X251000Y367676D01*
X247250Y363500D02*
Y363926D01*
X182500Y179500D02*
X203000D01*
X180000Y177000D02*
X182500Y179500D01*
X125000Y451000D02*
X143000D01*
X160000D01*
X125000Y437000D02*
X140500Y421500D01*
Y410000D02*
Y421500D01*
X143000Y437000D02*
X145500Y434500D01*
Y410000D02*
Y434500D01*
X159000Y430000D02*
Y436000D01*
X160000Y437000D01*
X155500Y426500D02*
X159000Y430000D01*
X155500Y410000D02*
Y426500D01*
X194000Y422000D02*
X196685Y419315D01*
X185397Y422000D02*
X194000D01*
X175500D02*
X185397D01*
X178000Y369000D02*
X186000Y361000D01*
X257000Y413000D02*
X260000Y416000D01*
X205000Y385500D02*
X205096Y385596D01*
X186000Y350500D02*
Y361000D01*
Y350500D02*
X186096Y350404D01*
X170500Y326000D02*
X175500D01*
X165500D02*
X170500D01*
X190000Y154500D02*
X203000D01*
X101500Y164500D02*
X119000D01*
X88000Y178000D02*
X101500Y164500D01*
X100500Y159500D02*
X119000D01*
X99500Y154500D02*
X119000D01*
X104000Y174500D02*
X119000D01*
X104500Y179500D02*
X119000D01*
X138500Y204000D02*
X138596Y204096D01*
X133500Y204000D02*
X133596Y204096D01*
X104750Y139500D02*
X119000D01*
X119000Y139500D01*
X118980Y144520D02*
X119000Y144500D01*
X49000Y86000D02*
X82983D01*
X121027Y385527D02*
X134527D01*
X121000Y385500D02*
X121027Y385527D01*
X131146Y344146D02*
X132000Y345000D01*
X140790Y341359D02*
Y348641D01*
X135641Y336210D02*
X140790Y341359D01*
X134525Y336210D02*
X135641D01*
Y353790D02*
X140790Y348641D01*
X134079Y339980D02*
X137020Y342921D01*
X132963Y339980D02*
X134079D01*
X137020Y342921D02*
Y347079D01*
X134079Y350020D02*
X137020Y347079D01*
X132665Y350020D02*
X134079D01*
X128480Y341480D02*
X131000Y344000D01*
X127615Y341480D02*
X128480D01*
X126635Y340500D02*
X127615Y341480D01*
X121000Y340500D02*
X126635D01*
X85000Y43000D02*
X92000D01*
X148500Y103500D02*
Y120000D01*
X138500Y107500D02*
Y120000D01*
X85000Y55500D02*
Y60682D01*
X143500Y105831D02*
Y120000D01*
X210843Y179500D02*
X222000Y190657D01*
X203000Y179500D02*
X210843D01*
X167979Y218568D02*
X168500Y218046D01*
Y204000D02*
Y218046D01*
X183520Y204230D02*
Y214570D01*
X183270Y204230D02*
X183500Y204000D01*
X172999Y221000D02*
X173596Y220403D01*
Y204096D02*
Y220403D01*
X158404Y204096D02*
X158500Y204000D01*
X163500D02*
Y227500D01*
X118904Y149596D02*
X119000Y149500D01*
X190500Y298500D02*
X191000Y298000D01*
X119000Y134500D02*
X119096Y134596D01*
X138522Y153522D02*
X139000Y154000D01*
X138522Y152837D02*
Y153522D01*
X203000Y200000D02*
X205000Y202000D01*
X203000Y189500D02*
Y200000D01*
X153500Y197815D02*
X166315Y185000D01*
X178542Y143790D02*
X187832Y134500D01*
X203000D01*
X179020Y131617D02*
Y137980D01*
X178500Y131097D02*
X179020Y131617D01*
X178500Y120000D02*
Y131097D01*
X176980Y140020D02*
X179020Y137980D01*
X183500Y120000D02*
Y127500D01*
X185520Y129520D01*
X216520D01*
X231000Y144000D01*
X180000Y164000D02*
X190500Y174500D01*
X203000D01*
X221000Y202000D02*
X223000Y204000D01*
X118904Y134404D02*
X119000Y134500D01*
X158500Y120000D02*
X158596Y119904D01*
X156000Y53000D02*
Y66000D01*
X173596Y120096D02*
Y134404D01*
X173500Y120000D02*
X173596Y120096D01*
X168404D02*
Y133596D01*
Y120096D02*
X168500Y120000D01*
X241320Y200320D02*
X252210D01*
X203000Y164500D02*
X203096Y164596D01*
Y174596D02*
X214918D01*
X215161Y174839D01*
X250750Y186160D02*
X252210Y187620D01*
X203000Y174500D02*
X203096Y174596D01*
X250000Y282000D02*
X254000D01*
X249000Y283000D02*
X250000Y282000D01*
X249000Y283000D02*
Y283500D01*
X131018Y364980D02*
X132999Y362999D01*
X121000Y360500D02*
X128399D01*
X128165Y354520D02*
X132665Y350020D01*
X173500Y204000D02*
X173596Y204096D01*
X127615Y354520D02*
X128165D01*
X126635Y355500D02*
X127615Y354520D01*
X121000Y355500D02*
X126635D01*
X107250Y370250D02*
X107404Y370404D01*
X105500Y375500D02*
X121000D01*
X247000Y394000D02*
X247581Y394581D01*
X96770Y365230D02*
X104000D01*
X186096Y350404D02*
X204904D01*
X190404Y326096D02*
Y335596D01*
X251000Y367676D02*
Y374000D01*
X94000Y368000D02*
X96770Y365230D01*
X150500Y400250D02*
Y410000D01*
X204904Y350404D02*
X205000Y350500D01*
X190404Y326096D02*
X190500Y326000D01*
X452200Y393200D02*
X458000Y399000D01*
X193000Y390500D02*
Y390983D01*
X160596Y417596D02*
X165000Y422000D01*
X160596Y410096D02*
Y417596D01*
X256000Y344000D02*
Y344000D01*
X247000Y353000D02*
X256000Y344000D01*
X193000Y375404D02*
Y390500D01*
X205000D01*
X180404Y409904D02*
X180500Y410000D01*
X193000Y357060D02*
Y375404D01*
X204904D01*
X205000Y375500D01*
X193000Y357060D02*
X194464Y355596D01*
X204904D01*
X205000Y355500D01*
X160500Y410000D02*
X160596Y410096D01*
X175500Y410000D02*
Y422000D01*
X121096Y370404D02*
X132594D01*
X121000Y370500D02*
X121096Y370404D01*
X72000Y368000D02*
Y381000D01*
X120904Y370404D02*
X121000Y370500D01*
X107404Y370404D02*
X120904D01*
X205000Y365500D02*
X205096Y365596D01*
X205000Y360500D02*
X219500D01*
X233000Y374000D01*
D12*
X210000Y101000D02*
D03*
X186000Y340000D02*
D03*
X84000Y459000D02*
D03*
X62000Y440000D02*
D03*
X408000Y464000D02*
D03*
X231500Y156042D02*
D03*
X49000Y192000D02*
D03*
X289000Y324000D02*
D03*
X333000Y465000D02*
D03*
X213000Y473000D02*
D03*
X280000Y355000D02*
D03*
X480001Y450001D02*
D03*
X470001Y350001D02*
D03*
X480001Y50001D02*
D03*
X450001Y470001D02*
D03*
X460001Y450001D02*
D03*
Y50001D02*
D03*
X450001Y30001D02*
D03*
X440001Y450001D02*
D03*
X430001Y430001D02*
D03*
X440001Y410001D02*
D03*
X430001Y350001D02*
D03*
X440001Y330001D02*
D03*
X430001Y310001D02*
D03*
X440001Y290001D02*
D03*
Y50001D02*
D03*
X430001Y30001D02*
D03*
X420001Y450001D02*
D03*
Y330001D02*
D03*
Y90001D02*
D03*
Y50001D02*
D03*
X400001Y450001D02*
D03*
X390001Y350001D02*
D03*
X380001Y410001D02*
D03*
Y370001D02*
D03*
X370001Y350001D02*
D03*
X380001Y330001D02*
D03*
X360001Y450001D02*
D03*
Y370001D02*
D03*
Y330001D02*
D03*
X350001Y270001D02*
D03*
X360001Y90001D02*
D03*
X340001Y450001D02*
D03*
Y410001D02*
D03*
X330001Y390001D02*
D03*
Y310001D02*
D03*
X340001Y290001D02*
D03*
Y90001D02*
D03*
X310001Y470001D02*
D03*
Y310001D02*
D03*
X320001Y290001D02*
D03*
X300001Y410001D02*
D03*
X290001Y310001D02*
D03*
X300001Y290001D02*
D03*
Y90001D02*
D03*
X280001Y450001D02*
D03*
Y410001D02*
D03*
Y290001D02*
D03*
X260001Y50001D02*
D03*
X240001Y450001D02*
D03*
X220001Y410001D02*
D03*
X210001Y30001D02*
D03*
X200001Y410001D02*
D03*
X190001Y310001D02*
D03*
Y70001D02*
D03*
X180001Y250001D02*
D03*
X170001Y30001D02*
D03*
X150001D02*
D03*
X140001Y50001D02*
D03*
X110001Y430001D02*
D03*
X120001Y410001D02*
D03*
Y250001D02*
D03*
X110001Y30001D02*
D03*
X90001Y310001D02*
D03*
X80001Y330001D02*
D03*
Y290001D02*
D03*
X70001Y190001D02*
D03*
X80001Y130001D02*
D03*
X70001Y110001D02*
D03*
Y70001D02*
D03*
Y30001D02*
D03*
X50001Y470001D02*
D03*
Y310001D02*
D03*
Y230001D02*
D03*
X60001Y170001D02*
D03*
X50001Y150001D02*
D03*
Y70001D02*
D03*
X60001Y50001D02*
D03*
X50001Y30001D02*
D03*
X40001Y450001D02*
D03*
X30001Y430001D02*
D03*
X40001Y370001D02*
D03*
X30001Y310001D02*
D03*
Y270001D02*
D03*
X40001Y250001D02*
D03*
X30001Y150001D02*
D03*
X40001Y130001D02*
D03*
X30001Y70001D02*
D03*
X40001Y50001D02*
D03*
X477000Y306000D02*
D03*
X231000Y190000D02*
D03*
X208000Y255000D02*
D03*
X268000Y288000D02*
D03*
Y104000D02*
D03*
X433000Y35000D02*
D03*
X316500Y167500D02*
D03*
X357000Y194000D02*
D03*
X458000Y91000D02*
D03*
X457800Y349800D02*
D03*
X447000Y80000D02*
D03*
X388000Y153000D02*
D03*
X258000Y220000D02*
D03*
X433000Y169000D02*
D03*
Y216000D02*
D03*
X258000Y79000D02*
D03*
X22250Y358500D02*
D03*
X32250Y357000D02*
D03*
X322500Y223500D02*
D03*
X21500Y156750D02*
D03*
X54500Y161500D02*
D03*
X25000Y224000D02*
D03*
X137000Y188750D02*
D03*
X147500Y142500D02*
D03*
X180000Y155000D02*
D03*
X337500Y20000D02*
D03*
X277500D02*
D03*
X108750Y331000D02*
D03*
X52000Y388500D02*
D03*
X257000Y397000D02*
D03*
Y404000D02*
D03*
X60250Y336250D02*
D03*
X7000Y330000D02*
D03*
X162500Y70250D02*
D03*
X148500Y190500D02*
D03*
X174000Y190500D02*
D03*
X388000Y165000D02*
D03*
X124000Y211000D02*
D03*
X82000Y344000D02*
D03*
X143000Y382000D02*
D03*
X145000Y396000D02*
D03*
X447000Y87000D02*
D03*
X106000Y389000D02*
D03*
X256750Y256750D02*
D03*
X155000Y249750D02*
D03*
X183000Y230000D02*
D03*
X109000Y350500D02*
D03*
X82500Y360500D02*
D03*
X72000Y381000D02*
D03*
X107250Y370250D02*
D03*
X191000Y218750D02*
D03*
X137000Y287000D02*
D03*
X155000Y219000D02*
D03*
X184000Y427999D02*
D03*
X221000Y308000D02*
D03*
X222750Y320500D02*
D03*
X222625Y354125D02*
D03*
X180404Y399500D02*
D03*
X134250Y394000D02*
D03*
X134553Y385553D02*
D03*
X132999Y370000D02*
D03*
X64750Y200500D02*
D03*
X167000Y135000D02*
D03*
X174000D02*
D03*
X143500Y225250D02*
D03*
X134750Y222500D02*
D03*
X129250Y216750D02*
D03*
X132750Y309750D02*
D03*
X165500Y311250D02*
D03*
X295000Y376000D02*
D03*
X221598Y381598D02*
D03*
X216000Y390999D02*
D03*
X258000Y331000D02*
D03*
X247250Y363500D02*
D03*
X193596Y184596D02*
D03*
X178000Y369000D02*
D03*
X190000Y154500D02*
D03*
X50000Y215000D02*
D03*
X155000Y152000D02*
D03*
X104750Y139500D02*
D03*
X109000Y125000D02*
D03*
X132000Y345000D02*
D03*
X222000Y190657D02*
D03*
X180000Y177000D02*
D03*
X223000Y258000D02*
D03*
X173249Y221000D02*
D03*
X198000Y120000D02*
D03*
X180000Y164000D02*
D03*
X242000Y227812D02*
D03*
X213000Y212000D02*
D03*
X139000Y154000D02*
D03*
X149500Y41000D02*
D03*
X156000Y66000D02*
D03*
X319000Y59000D02*
D03*
X215161Y174839D02*
D03*
X178000Y298000D02*
D03*
X220000Y273000D02*
D03*
X324000Y193250D02*
D03*
X132999Y362999D02*
D03*
X384000Y183000D02*
D03*
Y202000D02*
D03*
X268000Y319000D02*
D03*
X182999Y391999D02*
D03*
X256000Y344000D02*
D03*
D41*
X324000Y220000D02*
D03*
Y206000D02*
D03*
X223000Y204000D02*
D03*
Y218000D02*
D03*
X471000Y77000D02*
D03*
Y91000D02*
D03*
X178000Y437000D02*
D03*
Y451000D02*
D03*
X160000Y437000D02*
D03*
Y451000D02*
D03*
X143000D02*
D03*
Y437000D02*
D03*
X125000D02*
D03*
Y451000D02*
D03*
X201000Y288000D02*
D03*
Y274000D02*
D03*
X72000Y368000D02*
D03*
Y354000D02*
D03*
X94000Y368000D02*
D03*
Y354000D02*
D03*
X231000Y130000D02*
D03*
Y144000D02*
D03*
D42*
X236000Y238000D02*
D03*
X222000D02*
D03*
X173000Y238750D02*
D03*
X159000D02*
D03*
X233000Y309750D02*
D03*
X247000D02*
D03*
X233000Y334000D02*
D03*
X247000D02*
D03*
X257000Y413000D02*
D03*
X243000D02*
D03*
X168000Y298000D02*
D03*
X154000D02*
D03*
X76250Y394000D02*
D03*
X90250D02*
D03*
X247000Y353000D02*
D03*
X233000D02*
D03*
X251000Y374000D02*
D03*
X237000D02*
D03*
X247000Y394000D02*
D03*
X233000D02*
D03*
D43*
X638000Y131000D02*
D03*
Y151000D02*
D03*
X639000Y78000D02*
D03*
Y98000D02*
D03*
X611000Y129000D02*
D03*
Y149000D02*
D03*
X280000Y376000D02*
D03*
Y396000D02*
D03*
D44*
X33750Y180250D02*
D03*
X12750D02*
D03*
Y225250D02*
D03*
X33750D02*
D03*
D45*
X15000Y329250D02*
D03*
Y348750D02*
D03*
X41000D02*
D03*
Y329250D02*
D03*
X179500Y280250D02*
D03*
Y261750D02*
D03*
X156500D02*
D03*
Y280250D02*
D03*
D46*
X436000Y85000D02*
D03*
X404000D02*
D03*
D47*
X252210Y213020D02*
D03*
Y200320D02*
D03*
Y187620D02*
D03*
Y174920D02*
D03*
X306450D02*
D03*
Y187620D02*
D03*
Y200320D02*
D03*
Y213020D02*
D03*
X343760Y211400D02*
D03*
Y198700D02*
D03*
Y186000D02*
D03*
Y173300D02*
D03*
X398000D02*
D03*
Y186000D02*
D03*
Y198700D02*
D03*
Y211400D02*
D03*
D48*
X175500Y53000D02*
D03*
X169000D02*
D03*
X149500D02*
D03*
X156000D02*
D03*
X162500D02*
D03*
D49*
X147500Y12000D02*
D03*
X177500D02*
D03*
D50*
X239000Y269000D02*
D03*
D51*
X249000Y254500D02*
D03*
X239000D02*
D03*
X229000D02*
D03*
Y283500D02*
D03*
X239000D02*
D03*
X249000D02*
D03*
D52*
X203000Y189500D02*
D03*
Y184500D02*
D03*
Y179500D02*
D03*
Y174500D02*
D03*
Y169500D02*
D03*
Y164500D02*
D03*
Y159500D02*
D03*
Y154500D02*
D03*
Y149500D02*
D03*
Y144500D02*
D03*
Y139500D02*
D03*
Y134500D02*
D03*
X119000D02*
D03*
Y139500D02*
D03*
Y144500D02*
D03*
Y149500D02*
D03*
Y154500D02*
D03*
Y159500D02*
D03*
Y164500D02*
D03*
Y169500D02*
D03*
Y174500D02*
D03*
Y179500D02*
D03*
Y184500D02*
D03*
Y189500D02*
D03*
X121000Y340500D02*
D03*
Y345500D02*
D03*
Y350500D02*
D03*
Y355500D02*
D03*
Y360500D02*
D03*
Y365500D02*
D03*
Y370500D02*
D03*
Y375500D02*
D03*
Y380500D02*
D03*
Y385500D02*
D03*
Y390500D02*
D03*
Y395500D02*
D03*
X205000D02*
D03*
Y390500D02*
D03*
Y385500D02*
D03*
Y380500D02*
D03*
Y375500D02*
D03*
Y370500D02*
D03*
Y365500D02*
D03*
Y360500D02*
D03*
Y355500D02*
D03*
Y350500D02*
D03*
Y345500D02*
D03*
Y340500D02*
D03*
D53*
X188500Y120000D02*
D03*
X183500D02*
D03*
X178500D02*
D03*
X173500D02*
D03*
X168500D02*
D03*
X163500D02*
D03*
X158500D02*
D03*
X153500D02*
D03*
X148500D02*
D03*
X143500D02*
D03*
X138500D02*
D03*
X133500D02*
D03*
Y204000D02*
D03*
X138500D02*
D03*
X143500D02*
D03*
X148500D02*
D03*
X153500D02*
D03*
X158500D02*
D03*
X163500D02*
D03*
X168500D02*
D03*
X173500D02*
D03*
X178500D02*
D03*
X183500D02*
D03*
X188500D02*
D03*
X190500Y326000D02*
D03*
X185500D02*
D03*
X180500D02*
D03*
X175500D02*
D03*
X170500D02*
D03*
X165500D02*
D03*
X160500D02*
D03*
X155500D02*
D03*
X150500D02*
D03*
X145500D02*
D03*
X140500D02*
D03*
X135500D02*
D03*
Y410000D02*
D03*
X140500D02*
D03*
X145500D02*
D03*
X150500D02*
D03*
X155500D02*
D03*
X160500D02*
D03*
X165500D02*
D03*
X170500D02*
D03*
X175500D02*
D03*
X180500D02*
D03*
X185500D02*
D03*
X190500D02*
D03*
D54*
X231000Y155542D02*
X231500Y156042D01*
X231000Y144000D02*
Y155542D01*
X231500Y158585D02*
X247835Y174920D01*
X231500Y156042D02*
Y158585D01*
X324000Y193000D02*
X338000D01*
X306130Y200000D02*
X327000D01*
X338400Y211400D01*
X343760D01*
X268000Y259750D02*
Y288000D01*
Y259750D02*
X274750Y253000D01*
X178500Y11000D02*
X198500D01*
X261000D01*
X266000Y16000D02*
X378500D01*
X274750Y253000D02*
X288500D01*
X329700Y173300D02*
X343760D01*
X316000Y187000D02*
X329700Y173300D01*
X307000Y187000D02*
X316000D01*
X403900Y370000D02*
X404000Y370100D01*
Y371000D01*
Y370000D02*
Y370100D01*
Y341000D02*
Y370000D01*
X403450Y369550D02*
X403900Y370000D01*
X326574Y263574D02*
X404000Y341000D01*
X326574Y253574D02*
Y263574D01*
X326000Y253000D02*
X326574Y253574D01*
X433000Y216000D02*
X450000Y233000D01*
X415700Y198700D02*
X433000Y216000D01*
X433000Y169000D02*
X450000Y152000D01*
X416000Y186000D02*
X433000Y169000D01*
X450000Y233000D02*
Y243800D01*
X398000Y198700D02*
X415700D01*
X450000Y142200D02*
Y152000D01*
X82500Y354000D02*
X94000D01*
X52000Y388500D02*
Y404000D01*
X261000Y11000D02*
X266000Y16000D01*
X247835Y174920D02*
X252210D01*
X176750Y264500D02*
X179500Y261750D01*
X156500Y280250D02*
X157750D01*
X166250Y296250D02*
X168000Y298000D01*
X166250Y288750D02*
Y296250D01*
X157750Y280250D02*
X166250Y288750D01*
X178000Y298000D02*
X191000D01*
X458000Y424400D02*
X458150Y424250D01*
X177500Y12000D02*
X178500Y11000D01*
X205000Y288000D02*
X220000Y273000D01*
X201000Y288000D02*
X205000D01*
X198500Y11000D02*
Y23500D01*
X52750Y132250D02*
X53000Y132000D01*
X198500Y53000D02*
Y58200D01*
X126500Y19853D02*
Y23500D01*
Y19853D02*
X134353Y12000D01*
X147500D01*
X177500D01*
X191000Y298000D02*
X201000Y288000D01*
X168000Y298000D02*
X178000D01*
X398000Y186000D02*
X416000D01*
X387300Y198700D02*
X398000D01*
X384000Y202000D02*
X387300Y198700D01*
X387000Y186000D02*
X398000D01*
X384000Y183000D02*
X387000Y186000D01*
X72000Y354000D02*
X82500D01*
D55*
X324000Y224000D02*
X370000D01*
X381025D01*
X311500Y167500D02*
X316500D01*
X308000Y171000D02*
X311500Y167500D01*
X447000Y80000D02*
Y87000D01*
X438000D02*
X447000D01*
X437000Y86000D02*
X438000Y87000D01*
X231250Y120250D02*
X231500Y120000D01*
X231250Y120250D02*
Y129750D01*
X231000Y130000D02*
X231250Y129750D01*
X381025Y224000D02*
X393625Y211400D01*
X398000D01*
D56*
X314000Y214000D02*
X324000Y224000D01*
X310000Y214000D02*
X314000D01*
X339135Y186250D02*
Y194135D01*
Y186250D02*
X339385Y186000D01*
X343760D01*
X338000Y193000D02*
X339135Y194135D01*
Y198450D01*
X339385Y198700D01*
X343760D01*
X370000Y167000D02*
Y224000D01*
X384000Y153000D02*
X388000D01*
X370000Y167000D02*
X384000Y153000D01*
X388000D02*
X390000D01*
X257000Y214000D02*
Y219000D01*
X258000Y220000D01*
X7000Y330000D02*
X14250D01*
X15000Y329250D01*
X144000Y382000D02*
X153999Y391999D01*
X143000Y382000D02*
X144000D01*
X396300Y173300D02*
X398000D01*
X388000Y165000D02*
X396300Y173300D01*
X153999Y391999D02*
X182999D01*
X190000Y120000D02*
X198000D01*
D57*
X403500Y83500D02*
X405000Y85000D01*
X362000Y64000D02*
X403500D01*
X343000Y45000D02*
X362000Y64000D01*
X292000Y45000D02*
X343000D01*
X258000Y79000D02*
X292000Y45000D01*
X471000Y65000D02*
X482000D01*
X404500D02*
X471000D01*
X491000Y369000D02*
Y410000D01*
X476750Y424250D02*
X491000Y410000D01*
X458150Y424250D02*
X476750D01*
X490000Y370000D02*
X491000Y369000D01*
Y291700D02*
Y369000D01*
Y74000D02*
Y291700D01*
X459000D02*
X491000D01*
X404000Y370000D02*
X490000D01*
X403900D02*
X404000D01*
X403000D02*
X403900D01*
X403000D02*
X403450Y369550D01*
X345000Y428000D02*
X403000Y370000D01*
X482000Y65000D02*
X491000Y74000D01*
X231500Y105500D02*
X258000Y79000D01*
X231500Y105500D02*
Y120000D01*
X55500Y407500D02*
X117000Y469000D01*
X20000Y407500D02*
X55500D01*
X117000Y469000D02*
X187000D01*
X228000Y428000D01*
X345000D01*
X403500Y64000D02*
Y83500D01*
X198000Y120000D02*
X231500D01*
X403500Y16000D02*
Y64000D01*
X319000Y59000D02*
Y140000D01*
D58*
X353550Y197450D02*
X357000Y194000D01*
X345010Y197450D02*
X353550D01*
X343760Y198700D02*
X345010Y197450D01*
X149000Y41271D02*
X149500Y41771D01*
X149000Y41000D02*
Y41271D01*
X219000Y218000D02*
X223000D01*
X229000Y256500D02*
Y263000D01*
X227500Y258000D02*
X229000Y256500D01*
X223000Y258000D02*
X227500D01*
X229000Y254500D02*
Y256500D01*
X205000Y202000D02*
X221000D01*
X213000Y212000D02*
X219000Y218000D01*
X149500Y41771D02*
Y53000D01*
X235000Y273000D02*
X239000Y269000D01*
X220000Y273000D02*
X235000D01*
Y269000D02*
X239000D01*
X229000Y263000D02*
X235000Y269000D01*
X239000D02*
Y283500D01*
X229000D02*
X239000D01*
D59*
X458000Y91000D02*
X458000Y91000D01*
X471000D01*
Y65000D02*
Y77000D01*
D60*
X268000Y107500D02*
D03*
D61*
X294000Y187500D02*
D03*
Y200500D02*
D03*
X265000D02*
D03*
Y187500D02*
D03*
D62*
X344400Y140000D02*
D03*
X319000D02*
D03*
X293600D02*
D03*
X268200D02*
D03*
D63*
X54500Y107000D02*
D03*
Y94500D02*
D03*
Y119500D02*
D03*
X106500Y274000D02*
D03*
X81500D02*
D03*
X94000D02*
D03*
X391000Y16000D02*
D03*
X403500D02*
D03*
X233000Y22000D02*
D03*
X18000Y282500D02*
D03*
Y270000D02*
D03*
X85000Y43000D02*
D03*
Y18000D02*
D03*
Y30500D02*
D03*
X22750Y119500D02*
D03*
Y132000D02*
D03*
Y107000D02*
D03*
X313500Y253000D02*
D03*
X326000D02*
D03*
X301000D02*
D03*
D64*
X54500Y132000D02*
D03*
X18000Y295000D02*
D03*
X85000Y55500D02*
D03*
X22750Y94500D02*
D03*
D65*
X119000Y274000D02*
D03*
X378500Y16000D02*
D03*
X245500Y22000D02*
D03*
X288500Y253000D02*
D03*
D66*
X198500Y23500D02*
D03*
Y58200D02*
D03*
X126500D02*
D03*
Y23500D02*
D03*
D67*
X450000Y193000D02*
D03*
Y243800D02*
D03*
Y142200D02*
D03*
X378500Y278400D02*
D03*
Y437700D02*
D03*
D68*
X320100Y402450D02*
D03*
X345500Y389750D02*
D03*
X320100Y377050D02*
D03*
X345500Y364350D02*
D03*
X320100Y351650D02*
D03*
X345500Y338950D02*
D03*
X320100Y326250D02*
D03*
X345500Y313550D02*
D03*
X459000Y291700D02*
D03*
X458000Y317100D02*
D03*
Y399000D02*
D03*
Y424400D02*
D03*
D69*
X18000Y420000D02*
D03*
D70*
Y407500D02*
D03*
Y382500D02*
D03*
Y395000D02*
D03*
D71*
X25000Y25000D02*
D03*
Y475000D02*
D03*
X475000Y25000D02*
D03*
Y475000D02*
D03*
M02*
